<?xml version="1.0"?>
<svg xmlns="http://www.w3.org/2000/svg" xmlns:xlink="http://www.w3.org/1999/xlink" version="1.1" viewBox="0 0 224 224" width="30px" height="30px"><g fill="none" fill-rule="nonzero" stroke="none" stroke-width="1" stroke-linecap="butt" stroke-linejoin="miter" stroke-miterlimit="10" stroke-dasharray="" stroke-dashoffset="0" font-family="none" font-weight="none" font-size="none" text-anchor="none" style="mix-blend-mode: normal"><path d="M0,224v-224h224v224z" fill="none"/><path d="M0,112c0,-61.85589 50.14411,-112 112,-112c61.85589,0 112,50.14411 112,112c0,61.85589 -50.14411,112 -112,112c-61.85589,0 -112,-50.14411 -112,-112zM112,206.08c51.95895,0 94.08,-42.12105 94.08,-94.08c0,-51.95895 -42.12105,-94.08 -94.08,-94.08c-51.95895,0 -94.08,42.12105 -94.08,94.08c0,51.95895 42.12105,94.08 94.08,94.08z" fill="#000000"/><g fill="#000000"><path d="M52.864,30.688c-1.89143,0 -3.78494,0.72049 -5.22637,2.16563l-14.784,14.784c-2.89027,2.89027 -2.89027,7.56987 0,10.45275l53.90963,53.90963l-53.90963,53.90963c-2.89027,2.89027 -2.89027,7.56987 0,10.45275l14.784,14.784c2.89027,2.89027 7.56987,2.89027 10.45275,0l53.90963,-53.90963l53.90963,53.90963c2.88288,2.89027 7.56987,2.89027 10.45275,0l14.784,-14.784c2.89027,-2.89027 2.89027,-7.56987 0,-10.45275l-53.90963,-53.90963l53.90963,-53.90963c2.89027,-2.88288 2.89027,-7.56987 0,-10.45275l-14.784,-14.784c-2.89027,-2.89027 -7.56987,-2.89027 -10.45275,0l-53.90963,53.90963l-53.90963,-53.90963c-1.44514,-1.44514 -3.33495,-2.16563 -5.22637,-2.16563z"/></g><path d="M112,224c-61.85589,0 -112,-50.14411 -112,-112v0c0,-61.85589 50.14411,-112 112,-112v0c61.85589,0 112,50.14411 112,112v0c0,61.85589 -50.14411,112 -112,112z" fill="none"/><path d="M112,197.12c-47.01048,0 -85.12,-38.10952 -85.12,-85.12v0c0,-47.01048 38.10952,-85.12 85.12,-85.12v0c47.01048,0 85.12,38.10952 85.12,85.12v0c0,47.01048 -38.10952,85.12 -85.12,85.12z" fill="none"/><path d="M112,224c-61.85589,0 -112,-50.14411 -112,-112v0c0,-61.85589 50.14411,-112 112,-112v0c61.85589,0 112,50.14411 112,112v0c0,61.85589 -50.14411,112 -112,112z" fill="none"/><path d="M112,197.12c-47.01048,0 -85.12,-38.10952 -85.12,-85.12v0c0,-47.01048 38.10952,-85.12 85.12,-85.12v0c47.01048,0 85.12,38.10952 85.12,85.12v0c0,47.01048 -38.10952,85.12 -85.12,85.12z" fill="none"/><path d="M112,224c-61.85589,0 -112,-50.14411 -112,-112v0c0,-61.85589 50.14411,-112 112,-112v0c61.85589,0 112,50.14411 112,112v0c0,61.85589 -50.14411,112 -112,112z" fill="none"/><path d="M112,201.6c-49.48471,0 -89.6,-40.11529 -89.6,-89.6v0c0,-49.48471 40.11529,-89.6 89.6,-89.6v0c49.48471,0 89.6,40.11529 89.6,89.6v0c0,49.48471 -40.11529,89.6 -89.6,89.6z" fill="none"/><path d="M112,224c-61.85589,0 -112,-50.14411 -112,-112v0c0,-61.85589 50.14411,-112 112,-112v0c61.85589,0 112,50.14411 112,112v0c0,61.85589 -50.14411,112 -112,112z" fill="none"/><path d="M112,206.08c-51.95895,0 -94.08,-42.12105 -94.08,-94.08v0c0,-51.95895 42.12105,-94.08 94.08,-94.08h0c51.95895,0 94.08,42.12105 94.08,94.08v0c0,51.95895 -42.12105,94.08 -94.08,94.08z" fill="none"/><path d="M112,224c-61.85589,0 -112,-50.14411 -112,-112v0c0,-61.85589 50.14411,-112 112,-112v0c61.85589,0 112,50.14411 112,112v0c0,61.85589 -50.14411,112 -112,112z" fill="none"/><path d="M112,210.56c-54.43318,0 -98.56,-44.12682 -98.56,-98.56v0c0,-54.43318 44.12682,-98.56 98.56,-98.56v0c54.43318,0 98.56,44.12682 98.56,98.56v0c0,54.43318 -44.12682,98.56 -98.56,98.56z" fill="none"/><path d="M112,224c-61.85589,0 -112,-50.14411 -112,-112v0c0,-61.85589 50.14411,-112 112,-112v0c61.85589,0 112,50.14411 112,112v0c0,61.85589 -50.14411,112 -112,112z" fill="none"/><path d="M112,206.08c-51.95895,0 -94.08,-42.12105 -94.08,-94.08v0c0,-51.95895 42.12105,-94.08 94.08,-94.08h0c51.95895,0 94.08,42.12105 94.08,94.08v0c0,51.95895 -42.12105,94.08 -94.08,94.08z" fill="none"/><path d="M112,224c-61.85589,0 -112,-50.14411 -112,-112v0c0,-61.85589 50.14411,-112 112,-112v0c61.85589,0 112,50.14411 112,112v0c0,61.85589 -50.14411,112 -112,112z" fill="none"/><path d="M112,201.6c-49.48471,0 -89.6,-40.11529 -89.6,-89.6v0c0,-49.48471 40.11529,-89.6 89.6,-89.6v0c49.48471,0 89.6,40.11529 89.6,89.6v0c0,49.48471 -40.11529,89.6 -89.6,89.6z" fill="none"/><path d="M112,224c-61.85589,0 -112,-50.14411 -112,-112v0c0,-61.85589 50.14411,-112 112,-112v0c61.85589,0 112,50.14411 112,112v0c0,61.85589 -50.14411,112 -112,112z" fill="none"/><path d="M112,206.08c-51.95895,0 -94.08,-42.12105 -94.08,-94.08v0c0,-51.95895 42.12105,-94.08 94.08,-94.08h0c51.95895,0 94.08,42.12105 94.08,94.08v0c0,51.95895 -42.12105,94.08 -94.08,94.08z" fill="none"/><path d="M112,220.64c-60.00022,0 -108.64,-48.63978 -108.64,-108.64v0c0,-60.00022 48.63978,-108.64 108.64,-108.64h0c60.00022,0 108.64,48.63978 108.64,108.64v0c0,60.00022 -48.63978,108.64 -108.64,108.64z" fill="none"/><path d="M112,202.72c-50.10327,0 -90.72,-40.61673 -90.72,-90.72v0c0,-50.10327 40.61673,-90.72 90.72,-90.72v0c50.10327,0 90.72,40.61673 90.72,90.72v0c0,50.10327 -40.61673,90.72 -90.72,90.72z" fill="none"/><path d="M112,219.52c-59.38166,0 -107.52,-48.13834 -107.52,-107.52v0c0,-59.38166 48.13834,-107.52 107.52,-107.52h0c59.38166,0 107.52,48.13834 107.52,107.52v0c0,59.38166 -48.13834,107.52 -107.52,107.52z" fill="none"/><path d="M112,201.6c-49.48471,0 -89.6,-40.11529 -89.6,-89.6v0c0,-49.48471 40.11529,-89.6 89.6,-89.6v0c49.48471,0 89.6,40.11529 89.6,89.6v0c0,49.48471 -40.11529,89.6 -89.6,89.6z" fill="none"/><path d="M112,217.28c-58.14454,0 -105.28,-47.13546 -105.28,-105.28v0c0,-58.14454 47.13546,-105.28 105.28,-105.28v0c58.14454,0 105.28,47.13546 105.28,105.28v0c0,58.14454 -47.13546,105.28 -105.28,105.28z" fill="none"/><path d="M112,199.36c-48.2476,0 -87.36,-39.1124 -87.36,-87.36v0c0,-48.2476 39.1124,-87.36 87.36,-87.36h0c48.2476,0 87.36,39.1124 87.36,87.36v0c0,48.2476 -39.1124,87.36 -87.36,87.36z" fill="none"/><path d="M112,215.04c-56.90742,0 -103.04,-46.13258 -103.04,-103.04v0c0,-56.90742 46.13258,-103.04 103.04,-103.04h0c56.90742,0 103.04,46.13258 103.04,103.04v0c0,56.90742 -46.13258,103.04 -103.04,103.04z" fill="none"/><path d="M112,197.12c-47.01048,0 -85.12,-38.10952 -85.12,-85.12v0c0,-47.01048 38.10952,-85.12 85.12,-85.12v0c47.01048,0 85.12,38.10952 85.12,85.12v0c0,47.01048 -38.10952,85.12 -85.12,85.12z" fill="none"/><path d="M112,211.68c-55.05174,0 -99.68,-44.62826 -99.68,-99.68v0c0,-55.05174 44.62826,-99.68 99.68,-99.68v0c55.05174,0 99.68,44.62826 99.68,99.68v0c0,55.05174 -44.62826,99.68 -99.68,99.68z" fill="none"/><path d="M112,193.76c-45.1548,0 -81.76,-36.6052 -81.76,-81.76v0c0,-45.1548 36.6052,-81.76 81.76,-81.76h0c45.1548,0 81.76,36.6052 81.76,81.76v0c0,45.1548 -36.6052,81.76 -81.76,81.76z" fill="none"/><path d="M112,209.44c-53.81463,0 -97.44,-43.62537 -97.44,-97.44v0c0,-53.81463 43.62537,-97.44 97.44,-97.44v0c53.81463,0 97.44,43.62537 97.44,97.44v0c0,53.81463 -43.62537,97.44 -97.44,97.44z" fill="none"/><path d="M112,191.52c-43.91768,0 -79.52,-35.60232 -79.52,-79.52v0c0,-43.91768 35.60232,-79.52 79.52,-79.52h0c43.91768,0 79.52,35.60232 79.52,79.52v0c0,43.91768 -35.60232,79.52 -79.52,79.52z" fill="none"/><path d="M112,207.2c-52.57751,0 -95.2,-42.62249 -95.2,-95.2v0c0,-52.57751 42.62249,-95.2 95.2,-95.2h0c52.57751,0 95.2,42.62249 95.2,95.2v0c0,52.57751 -42.62249,95.2 -95.2,95.2z" fill="none"/><path d="M112,189.28c-42.68057,0 -77.28,-34.59943 -77.28,-77.28v0c0,-42.68057 34.59943,-77.28 77.28,-77.28v0c42.68057,0 77.28,34.59943 77.28,77.28v0c0,42.68057 -34.59943,77.28 -77.28,77.28z" fill="none"/><path d="M112,204.96c-51.34039,0 -92.96,-41.61961 -92.96,-92.96v0c0,-51.34039 41.61961,-92.96 92.96,-92.96h0c51.34039,0 92.96,41.61961 92.96,92.96v0c0,51.34039 -41.61961,92.96 -92.96,92.96z" fill="none"/><path d="M112,187.04c-41.44345,0 -75.04,-33.59655 -75.04,-75.04v0c0,-41.44345 33.59655,-75.04 75.04,-75.04v0c41.44345,0 75.04,33.59655 75.04,75.04v0c0,41.44345 -33.59655,75.04 -75.04,75.04z" fill="none"/><path d="M112,197.12c-47.01048,0 -85.12,-38.10952 -85.12,-85.12v0c0,-47.01048 38.10952,-85.12 85.12,-85.12v0c47.01048,0 85.12,38.10952 85.12,85.12v0c0,47.01048 -38.10952,85.12 -85.12,85.12z" fill="none"/><path d="M112,179.2c-37.11354,0 -67.2,-30.08646 -67.2,-67.2v0c0,-37.11354 30.08646,-67.2 67.2,-67.2h0c37.11354,0 67.2,30.08646 67.2,67.2v0c0,37.11354 -30.08646,67.2 -67.2,67.2z" fill="none"/><path d="M112,194.88c-45.77336,0 -82.88,-37.10664 -82.88,-82.88v0c0,-45.77336 37.10664,-82.88 82.88,-82.88v0c45.77336,0 82.88,37.10664 82.88,82.88v0c0,45.77336 -37.10664,82.88 -82.88,82.88z" fill="none"/><path d="M112,176.96c-35.87642,0 -64.96,-29.08358 -64.96,-64.96v0c0,-35.87642 29.08358,-64.96 64.96,-64.96h0c35.87642,0 64.96,29.08358 64.96,64.96v0c0,35.87642 -29.08358,64.96 -64.96,64.96z" fill="none"/><path d="M112,193.76c-45.1548,0 -81.76,-36.6052 -81.76,-81.76v0c0,-45.1548 36.6052,-81.76 81.76,-81.76h0c45.1548,0 81.76,36.6052 81.76,81.76v0c0,45.1548 -36.6052,81.76 -81.76,81.76z" fill="none"/><path d="M112,175.84c-35.25786,0 -63.84,-28.58214 -63.84,-63.84v0c0,-35.25786 28.58214,-63.84 63.84,-63.84v0c35.25786,0 63.84,28.58214 63.84,63.84v0c0,35.25786 -28.58214,63.84 -63.84,63.84z" fill="none"/><path d="M112,192.64c-44.53624,0 -80.64,-36.10376 -80.64,-80.64v0c0,-44.53624 36.10376,-80.64 80.64,-80.64h0c44.53624,0 80.64,36.10376 80.64,80.64v0c0,44.53624 -36.10376,80.64 -80.64,80.64z" fill="none"/><path d="M112,174.72c-34.6393,0 -62.72,-28.0807 -62.72,-62.72v0c0,-34.6393 28.0807,-62.72 62.72,-62.72v0c34.6393,0 62.72,28.0807 62.72,62.72v0c0,34.6393 -28.0807,62.72 -62.72,62.72z" fill="none"/><path d="M112,189.28c-42.68057,0 -77.28,-34.59943 -77.28,-77.28v0c0,-42.68057 34.59943,-77.28 77.28,-77.28v0c42.68057,0 77.28,34.59943 77.28,77.28v0c0,42.68057 -34.59943,77.28 -77.28,77.28z" fill="none"/><path d="M112,171.36c-32.78362,0 -59.36,-26.57638 -59.36,-59.36v0c0,-32.78362 26.57638,-59.36 59.36,-59.36h0c32.78362,0 59.36,26.57638 59.36,59.36v0c0,32.78362 -26.57638,59.36 -59.36,59.36z" fill="none"/><path d="M112,193.76c-45.1548,0 -81.76,-36.6052 -81.76,-81.76v0c0,-45.1548 36.6052,-81.76 81.76,-81.76h0c45.1548,0 81.76,36.6052 81.76,81.76v0c0,45.1548 -36.6052,81.76 -81.76,81.76z" fill="none"/><path d="M112,175.84c-35.25786,0 -63.84,-28.58214 -63.84,-63.84v0c0,-35.25786 28.58214,-63.84 63.84,-63.84v0c35.25786,0 63.84,28.58214 63.84,63.84v0c0,35.25786 -28.58214,63.84 -63.84,63.84z" fill="none"/><path d="M112,194.88c-45.77336,0 -82.88,-37.10664 -82.88,-82.88v0c0,-45.77336 37.10664,-82.88 82.88,-82.88v0c45.77336,0 82.88,37.10664 82.88,82.88v0c0,45.77336 -37.10664,82.88 -82.88,82.88z" fill="none"/><path d="M112,176.96c-35.87642,0 -64.96,-29.08358 -64.96,-64.96v0c0,-35.87642 29.08358,-64.96 64.96,-64.96h0c35.87642,0 64.96,29.08358 64.96,64.96v0c0,35.87642 -29.08358,64.96 -64.96,64.96z" fill="none"/><path d="M112,197.12c-47.01048,0 -85.12,-38.10952 -85.12,-85.12v0c0,-47.01048 38.10952,-85.12 85.12,-85.12v0c47.01048,0 85.12,38.10952 85.12,85.12v0c0,47.01048 -38.10952,85.12 -85.12,85.12z" fill="none"/><path d="M112,179.2c-37.11354,0 -67.2,-30.08646 -67.2,-67.2v0c0,-37.11354 30.08646,-67.2 67.2,-67.2h0c37.11354,0 67.2,30.08646 67.2,67.2v0c0,37.11354 -30.08646,67.2 -67.2,67.2z" fill="none"/><path d="M112,201.6c-49.48471,0 -89.6,-40.11529 -89.6,-89.6v0c0,-49.48471 40.11529,-89.6 89.6,-89.6v0c49.48471,0 89.6,40.11529 89.6,89.6v0c0,49.48471 -40.11529,89.6 -89.6,89.6z" fill="none"/><path d="M112,183.68c-39.58777,0 -71.68,-32.09223 -71.68,-71.68v0c0,-39.58777 32.09223,-71.68 71.68,-71.68h0c39.58777,0 71.68,32.09223 71.68,71.68v0c0,39.58777 -32.09223,71.68 -71.68,71.68z" fill="none"/><path d="M112,202.72c-50.10327,0 -90.72,-40.61673 -90.72,-90.72v0c0,-50.10327 40.61673,-90.72 90.72,-90.72v0c50.10327,0 90.72,40.61673 90.72,90.72v0c0,50.10327 -40.61673,90.72 -90.72,90.72z" fill="none"/><path d="M112,184.8c-40.20633,0 -72.8,-32.59367 -72.8,-72.8v0c0,-40.20633 32.59367,-72.8 72.8,-72.8h0c40.20633,0 72.8,32.59367 72.8,72.8v0c0,40.20633 -32.59367,72.8 -72.8,72.8z" fill="none"/><path d="M112,203.84c-50.72183,0 -91.84,-41.11817 -91.84,-91.84v0c0,-50.72183 41.11817,-91.84 91.84,-91.84v0c50.72183,0 91.84,41.11817 91.84,91.84v0c0,50.72183 -41.11817,91.84 -91.84,91.84z" fill="none"/><path d="M112,185.92c-40.82489,0 -73.92,-33.09511 -73.92,-73.92v0c0,-40.82489 33.09511,-73.92 73.92,-73.92h0c40.82489,0 73.92,33.09511 73.92,73.92v0c0,40.82489 -33.09511,73.92 -73.92,73.92z" fill="none"/><path d="M112,204.96c-51.34039,0 -92.96,-41.61961 -92.96,-92.96v0c0,-51.34039 41.61961,-92.96 92.96,-92.96h0c51.34039,0 92.96,41.61961 92.96,92.96v0c0,51.34039 -41.61961,92.96 -92.96,92.96z" fill="none"/><path d="M112,187.04c-41.44345,0 -75.04,-33.59655 -75.04,-75.04v0c0,-41.44345 33.59655,-75.04 75.04,-75.04v0c41.44345,0 75.04,33.59655 75.04,75.04v0c0,41.44345 -33.59655,75.04 -75.04,75.04z" fill="none"/><path d="M112,207.2c-52.57751,0 -95.2,-42.62249 -95.2,-95.2v0c0,-52.57751 42.62249,-95.2 95.2,-95.2h0c52.57751,0 95.2,42.62249 95.2,95.2v0c0,52.57751 -42.62249,95.2 -95.2,95.2z" fill="none"/><path d="M112,189.28c-42.68057,0 -77.28,-34.59943 -77.28,-77.28v0c0,-42.68057 34.59943,-77.28 77.28,-77.28v0c42.68057,0 77.28,34.59943 77.28,77.28v0c0,42.68057 -34.59943,77.28 -77.28,77.28z" fill="none"/><path d="M112,208.32c-53.19607,0 -96.32,-43.12393 -96.32,-96.32v0c0,-53.19607 43.12393,-96.32 96.32,-96.32v0c53.19607,0 96.32,43.12393 96.32,96.32v0c0,53.19607 -43.12393,96.32 -96.32,96.32z" fill="none"/><path d="M112,190.4c-43.29912,0 -78.4,-35.10088 -78.4,-78.4v0c0,-43.29912 35.10088,-78.4 78.4,-78.4h0c43.29912,0 78.4,35.10088 78.4,78.4v0c0,43.29912 -35.10088,78.4 -78.4,78.4z" fill="none"/><path d="M112,209.44c-53.81463,0 -97.44,-43.62537 -97.44,-97.44v0c0,-53.81463 43.62537,-97.44 97.44,-97.44v0c53.81463,0 97.44,43.62537 97.44,97.44v0c0,53.81463 -43.62537,97.44 -97.44,97.44z" fill="none"/><path d="M112,191.52c-43.91768,0 -79.52,-35.60232 -79.52,-79.52v0c0,-43.91768 35.60232,-79.52 79.52,-79.52h0c43.91768,0 79.52,35.60232 79.52,79.52v0c0,43.91768 -35.60232,79.52 -79.52,79.52z" fill="none"/><path d="M112,209.44c-53.81463,0 -97.44,-43.62537 -97.44,-97.44v0c0,-53.81463 43.62537,-97.44 97.44,-97.44v0c53.81463,0 97.44,43.62537 97.44,97.44v0c0,53.81463 -43.62537,97.44 -97.44,97.44z" fill="none"/><path d="M112,191.52c-43.91768,0 -79.52,-35.60232 -79.52,-79.52v0c0,-43.91768 35.60232,-79.52 79.52,-79.52h0c43.91768,0 79.52,35.60232 79.52,79.52v0c0,43.91768 -35.60232,79.52 -79.52,79.52z" fill="none"/><path d="M112,209.44c-53.81463,0 -97.44,-43.62537 -97.44,-97.44v0c0,-53.81463 43.62537,-97.44 97.44,-97.44v0c53.81463,0 97.44,43.62537 97.44,97.44v0c0,53.81463 -43.62537,97.44 -97.44,97.44z" fill="none"/><path d="M112,191.52c-43.91768,0 -79.52,-35.60232 -79.52,-79.52v0c0,-43.91768 35.60232,-79.52 79.52,-79.52h0c43.91768,0 79.52,35.60232 79.52,79.52v0c0,43.91768 -35.60232,79.52 -79.52,79.52z" fill="none"/><path d="M112,209.44c-53.81463,0 -97.44,-43.62537 -97.44,-97.44v0c0,-53.81463 43.62537,-97.44 97.44,-97.44v0c53.81463,0 97.44,43.62537 97.44,97.44v0c0,53.81463 -43.62537,97.44 -97.44,97.44z" fill="none"/><path d="M112,191.52c-43.91768,0 -79.52,-35.60232 -79.52,-79.52v0c0,-43.91768 35.60232,-79.52 79.52,-79.52h0c43.91768,0 79.52,35.60232 79.52,79.52v0c0,43.91768 -35.60232,79.52 -79.52,79.52z" fill="none"/><path d="M112,209.44c-53.81463,0 -97.44,-43.62537 -97.44,-97.44v0c0,-53.81463 43.62537,-97.44 97.44,-97.44v0c53.81463,0 97.44,43.62537 97.44,97.44v0c0,53.81463 -43.62537,97.44 -97.44,97.44z" fill="none"/><path d="M112,191.52c-43.91768,0 -79.52,-35.60232 -79.52,-79.52v0c0,-43.91768 35.60232,-79.52 79.52,-79.52h0c43.91768,0 79.52,35.60232 79.52,79.52v0c0,43.91768 -35.60232,79.52 -79.52,79.52z" fill="none"/><path d="M112,209.44c-53.81463,0 -97.44,-43.62537 -97.44,-97.44v0c0,-53.81463 43.62537,-97.44 97.44,-97.44v0c53.81463,0 97.44,43.62537 97.44,97.44v0c0,53.81463 -43.62537,97.44 -97.44,97.44z" fill="none"/><path d="M112,191.52c-43.91768,0 -79.52,-35.60232 -79.52,-79.52v0c0,-43.91768 35.60232,-79.52 79.52,-79.52h0c43.91768,0 79.52,35.60232 79.52,79.52v0c0,43.91768 -35.60232,79.52 -79.52,79.52z" fill="none"/><path d="M112,209.44c-53.81463,0 -97.44,-43.62537 -97.44,-97.44v0c0,-53.81463 43.62537,-97.44 97.44,-97.44v0c53.81463,0 97.44,43.62537 97.44,97.44v0c0,53.81463 -43.62537,97.44 -97.44,97.44z" fill="none"/><path d="M112,191.52c-43.91768,0 -79.52,-35.60232 -79.52,-79.52v0c0,-43.91768 35.60232,-79.52 79.52,-79.52h0c43.91768,0 79.52,35.60232 79.52,79.52v0c0,43.91768 -35.60232,79.52 -79.52,79.52z" fill="none"/><path d="M112,209.44c-53.81463,0 -97.44,-43.62537 -97.44,-97.44v0c0,-53.81463 43.62537,-97.44 97.44,-97.44v0c53.81463,0 97.44,43.62537 97.44,97.44v0c0,53.81463 -43.62537,97.44 -97.44,97.44z" fill="none"/><path d="M112,191.52c-43.91768,0 -79.52,-35.60232 -79.52,-79.52v0c0,-43.91768 35.60232,-79.52 79.52,-79.52h0c43.91768,0 79.52,35.60232 79.52,79.52v0c0,43.91768 -35.60232,79.52 -79.52,79.52z" fill="none"/><path d="M112,209.44c-53.81463,0 -97.44,-43.62537 -97.44,-97.44v0c0,-53.81463 43.62537,-97.44 97.44,-97.44v0c53.81463,0 97.44,43.62537 97.44,97.44v0c0,53.81463 -43.62537,97.44 -97.44,97.44z" fill="none"/><path d="M112,191.52c-43.91768,0 -79.52,-35.60232 -79.52,-79.52v0c0,-43.91768 35.60232,-79.52 79.52,-79.52h0c43.91768,0 79.52,35.60232 79.52,79.52v0c0,43.91768 -35.60232,79.52 -79.52,79.52z" fill="none"/><path d="M112,209.44c-53.81463,0 -97.44,-43.62537 -97.44,-97.44v0c0,-53.81463 43.62537,-97.44 97.44,-97.44v0c53.81463,0 97.44,43.62537 97.44,97.44v0c0,53.81463 -43.62537,97.44 -97.44,97.44z" fill="none"/><path d="M112,191.52c-43.91768,0 -79.52,-35.60232 -79.52,-79.52v0c0,-43.91768 35.60232,-79.52 79.52,-79.52h0c43.91768,0 79.52,35.60232 79.52,79.52v0c0,43.91768 -35.60232,79.52 -79.52,79.52z" fill="none"/><path d="M112,209.44c-53.81463,0 -97.44,-43.62537 -97.44,-97.44v0c0,-53.81463 43.62537,-97.44 97.44,-97.44v0c53.81463,0 97.44,43.62537 97.44,97.44v0c0,53.81463 -43.62537,97.44 -97.44,97.44z" fill="none"/><path d="M112,191.52c-43.91768,0 -79.52,-35.60232 -79.52,-79.52v0c0,-43.91768 35.60232,-79.52 79.52,-79.52h0c43.91768,0 79.52,35.60232 79.52,79.52v0c0,43.91768 -35.60232,79.52 -79.52,79.52z" fill="none"/><path d="M112,209.44c-53.81463,0 -97.44,-43.62537 -97.44,-97.44v0c0,-53.81463 43.62537,-97.44 97.44,-97.44v0c53.81463,0 97.44,43.62537 97.44,97.44v0c0,53.81463 -43.62537,97.44 -97.44,97.44z" fill="none"/><path d="M112,191.52c-43.91768,0 -79.52,-35.60232 -79.52,-79.52v0c0,-43.91768 35.60232,-79.52 79.52,-79.52h0c43.91768,0 79.52,35.60232 79.52,79.52v0c0,43.91768 -35.60232,79.52 -79.52,79.52z" fill="none"/><path d="M112,209.44c-53.81463,0 -97.44,-43.62537 -97.44,-97.44v0c0,-53.81463 43.62537,-97.44 97.44,-97.44v0c53.81463,0 97.44,43.62537 97.44,97.44v0c0,53.81463 -43.62537,97.44 -97.44,97.44z" fill="none"/><path d="M112,191.52c-43.91768,0 -79.52,-35.60232 -79.52,-79.52v0c0,-43.91768 35.60232,-79.52 79.52,-79.52h0c43.91768,0 79.52,35.60232 79.52,79.52v0c0,43.91768 -35.60232,79.52 -79.52,79.52z" fill="none"/><path d="M112,209.44c-53.81463,0 -97.44,-43.62537 -97.44,-97.44v0c0,-53.81463 43.62537,-97.44 97.44,-97.44v0c53.81463,0 97.44,43.62537 97.44,97.44v0c0,53.81463 -43.62537,97.44 -97.44,97.44z" fill="none"/><path d="M112,191.52c-43.91768,0 -79.52,-35.60232 -79.52,-79.52v0c0,-43.91768 35.60232,-79.52 79.52,-79.52h0c43.91768,0 79.52,35.60232 79.52,79.52v0c0,43.91768 -35.60232,79.52 -79.52,79.52z" fill="none"/><path d="M112,209.44c-53.81463,0 -97.44,-43.62537 -97.44,-97.44v0c0,-53.81463 43.62537,-97.44 97.44,-97.44v0c53.81463,0 97.44,43.62537 97.44,97.44v0c0,53.81463 -43.62537,97.44 -97.44,97.44z" fill="none"/><path d="M112,191.52c-43.91768,0 -79.52,-35.60232 -79.52,-79.52v0c0,-43.91768 35.60232,-79.52 79.52,-79.52h0c43.91768,0 79.52,35.60232 79.52,79.52v0c0,43.91768 -35.60232,79.52 -79.52,79.52z" fill="none"/><path d="M112,209.44c-53.81463,0 -97.44,-43.62537 -97.44,-97.44v0c0,-53.81463 43.62537,-97.44 97.44,-97.44v0c53.81463,0 97.44,43.62537 97.44,97.44v0c0,53.81463 -43.62537,97.44 -97.44,97.44z" fill="none"/><path d="M112,191.52c-43.91768,0 -79.52,-35.60232 -79.52,-79.52v0c0,-43.91768 35.60232,-79.52 79.52,-79.52h0c43.91768,0 79.52,35.60232 79.52,79.52v0c0,43.91768 -35.60232,79.52 -79.52,79.52z" fill="none"/><path d="M112,209.44c-53.81463,0 -97.44,-43.62537 -97.44,-97.44v0c0,-53.81463 43.62537,-97.44 97.44,-97.44v0c53.81463,0 97.44,43.62537 97.44,97.44v0c0,53.81463 -43.62537,97.44 -97.44,97.44z" fill="none"/><path d="M112,191.52c-43.91768,0 -79.52,-35.60232 -79.52,-79.52v0c0,-43.91768 35.60232,-79.52 79.52,-79.52h0c43.91768,0 79.52,35.60232 79.52,79.52v0c0,43.91768 -35.60232,79.52 -79.52,79.52z" fill="none"/><path d="M112,208.32c-53.19607,0 -96.32,-43.12393 -96.32,-96.32v0c0,-53.19607 43.12393,-96.32 96.32,-96.32v0c53.19607,0 96.32,43.12393 96.32,96.32v0c0,53.19607 -43.12393,96.32 -96.32,96.32z" fill="none"/><path d="M112,190.4c-43.29912,0 -78.4,-35.10088 -78.4,-78.4v0c0,-43.29912 35.10088,-78.4 78.4,-78.4h0c43.29912,0 78.4,35.10088 78.4,78.4v0c0,43.29912 -35.10088,78.4 -78.4,78.4z" fill="none"/><path d="M112,207.2c-52.57751,0 -95.2,-42.62249 -95.2,-95.2v0c0,-52.57751 42.62249,-95.2 95.2,-95.2h0c52.57751,0 95.2,42.62249 95.2,95.2v0c0,52.57751 -42.62249,95.2 -95.2,95.2z" fill="none"/><path d="M112,189.28c-42.68057,0 -77.28,-34.59943 -77.28,-77.28v0c0,-42.68057 34.59943,-77.28 77.28,-77.28v0c42.68057,0 77.28,34.59943 77.28,77.28v0c0,42.68057 -34.59943,77.28 -77.28,77.28z" fill="none"/><path d="M112,202.72c-50.10327,0 -90.72,-40.61673 -90.72,-90.72v0c0,-50.10327 40.61673,-90.72 90.72,-90.72v0c50.10327,0 90.72,40.61673 90.72,90.72v0c0,50.10327 -40.61673,90.72 -90.72,90.72z" fill="none"/><path d="M112,184.8c-40.20633,0 -72.8,-32.59367 -72.8,-72.8v0c0,-40.20633 32.59367,-72.8 72.8,-72.8h0c40.20633,0 72.8,32.59367 72.8,72.8v0c0,40.20633 -32.59367,72.8 -72.8,72.8z" fill="none"/><path d="M112,201.6c-49.48471,0 -89.6,-40.11529 -89.6,-89.6v0c0,-49.48471 40.11529,-89.6 89.6,-89.6v0c49.48471,0 89.6,40.11529 89.6,89.6v0c0,49.48471 -40.11529,89.6 -89.6,89.6z" fill="none"/><path d="M112,183.68c-39.58777,0 -71.68,-32.09223 -71.68,-71.68v0c0,-39.58777 32.09223,-71.68 71.68,-71.68h0c39.58777,0 71.68,32.09223 71.68,71.68v0c0,39.58777 -32.09223,71.68 -71.68,71.68z" fill="none"/><path d="M112,200.48c-48.86615,0 -88.48,-39.61385 -88.48,-88.48v0c0,-48.86615 39.61385,-88.48 88.48,-88.48h0c48.86615,0 88.48,39.61385 88.48,88.48v0c0,48.86615 -39.61385,88.48 -88.48,88.48z" fill="none"/><path d="M112,182.56c-38.96921,0 -70.56,-31.59079 -70.56,-70.56v0c0,-38.96921 31.59079,-70.56 70.56,-70.56v0c38.96921,0 70.56,31.59079 70.56,70.56v0c0,38.96921 -31.59079,70.56 -70.56,70.56z" fill="none"/><path d="M112,197.12c-47.01048,0 -85.12,-38.10952 -85.12,-85.12v0c0,-47.01048 38.10952,-85.12 85.12,-85.12v0c47.01048,0 85.12,38.10952 85.12,85.12v0c0,47.01048 -38.10952,85.12 -85.12,85.12z" fill="none"/><path d="M112,179.2c-37.11354,0 -67.2,-30.08646 -67.2,-67.2v0c0,-37.11354 30.08646,-67.2 67.2,-67.2h0c37.11354,0 67.2,30.08646 67.2,67.2v0c0,37.11354 -30.08646,67.2 -67.2,67.2z" fill="none"/><path d="M112,196c-46.39192,0 -84,-37.60808 -84,-84v0c0,-46.39192 37.60808,-84 84,-84v0c46.39192,0 84,37.60808 84,84v0c0,46.39192 -37.60808,84 -84,84z" fill="none"/><path d="M112,178.08c-36.49498,0 -66.08,-29.58502 -66.08,-66.08v0c0,-36.49498 29.58502,-66.08 66.08,-66.08h0c36.49498,0 66.08,29.58502 66.08,66.08v0c0,36.49498 -29.58502,66.08 -66.08,66.08z" fill="none"/><path d="M112,194.88c-45.77336,0 -82.88,-37.10664 -82.88,-82.88v0c0,-45.77336 37.10664,-82.88 82.88,-82.88v0c45.77336,0 82.88,37.10664 82.88,82.88v0c0,45.77336 -37.10664,82.88 -82.88,82.88z" fill="none"/><path d="M112,176.96c-35.87642,0 -64.96,-29.08358 -64.96,-64.96v0c0,-35.87642 29.08358,-64.96 64.96,-64.96h0c35.87642,0 64.96,29.08358 64.96,64.96v0c0,35.87642 -29.08358,64.96 -64.96,64.96z" fill="none"/><path d="M112,193.76c-45.1548,0 -81.76,-36.6052 -81.76,-81.76v0c0,-45.1548 36.6052,-81.76 81.76,-81.76h0c45.1548,0 81.76,36.6052 81.76,81.76v0c0,45.1548 -36.6052,81.76 -81.76,81.76z" fill="none"/><path d="M112,175.84c-35.25786,0 -63.84,-28.58214 -63.84,-63.84v0c0,-35.25786 28.58214,-63.84 63.84,-63.84v0c35.25786,0 63.84,28.58214 63.84,63.84v0c0,35.25786 -28.58214,63.84 -63.84,63.84z" fill="none"/><path d="M112,192.64c-44.53624,0 -80.64,-36.10376 -80.64,-80.64v0c0,-44.53624 36.10376,-80.64 80.64,-80.64h0c44.53624,0 80.64,36.10376 80.64,80.64v0c0,44.53624 -36.10376,80.64 -80.64,80.64z" fill="none"/><path d="M112,174.72c-34.6393,0 -62.72,-28.0807 -62.72,-62.72v0c0,-34.6393 28.0807,-62.72 62.72,-62.72v0c34.6393,0 62.72,28.0807 62.72,62.72v0c0,34.6393 -28.0807,62.72 -62.72,62.72z" fill="none"/><path d="M112,201.6c-49.48471,0 -89.6,-40.11529 -89.6,-89.6v0c0,-49.48471 40.11529,-89.6 89.6,-89.6v0c49.48471,0 89.6,40.11529 89.6,89.6v0c0,49.48471 -40.11529,89.6 -89.6,89.6z" fill="none"/><path d="M112,183.68c-39.58777,0 -71.68,-32.09223 -71.68,-71.68v0c0,-39.58777 32.09223,-71.68 71.68,-71.68h0c39.58777,0 71.68,32.09223 71.68,71.68v0c0,39.58777 -32.09223,71.68 -71.68,71.68z" fill="none"/><path d="M112,202.72c-50.10327,0 -90.72,-40.61673 -90.72,-90.72v0c0,-50.10327 40.61673,-90.72 90.72,-90.72v0c50.10327,0 90.72,40.61673 90.72,90.72v0c0,50.10327 -40.61673,90.72 -90.72,90.72z" fill="none"/><path d="M112,184.8c-40.20633,0 -72.8,-32.59367 -72.8,-72.8v0c0,-40.20633 32.59367,-72.8 72.8,-72.8h0c40.20633,0 72.8,32.59367 72.8,72.8v0c0,40.20633 -32.59367,72.8 -72.8,72.8z" fill="none"/><path d="M112,204.96c-51.34039,0 -92.96,-41.61961 -92.96,-92.96v0c0,-51.34039 41.61961,-92.96 92.96,-92.96h0c51.34039,0 92.96,41.61961 92.96,92.96v0c0,51.34039 -41.61961,92.96 -92.96,92.96z" fill="none"/><path d="M112,187.04c-41.44345,0 -75.04,-33.59655 -75.04,-75.04v0c0,-41.44345 33.59655,-75.04 75.04,-75.04v0c41.44345,0 75.04,33.59655 75.04,75.04v0c0,41.44345 -33.59655,75.04 -75.04,75.04z" fill="none"/><path d="M112,207.2c-52.57751,0 -95.2,-42.62249 -95.2,-95.2v0c0,-52.57751 42.62249,-95.2 95.2,-95.2h0c52.57751,0 95.2,42.62249 95.2,95.2v0c0,52.57751 -42.62249,95.2 -95.2,95.2z" fill="none"/><path d="M112,189.28c-42.68057,0 -77.28,-34.59943 -77.28,-77.28v0c0,-42.68057 34.59943,-77.28 77.28,-77.28v0c42.68057,0 77.28,34.59943 77.28,77.28v0c0,42.68057 -34.59943,77.28 -77.28,77.28z" fill="none"/><path d="M112,209.44c-53.81463,0 -97.44,-43.62537 -97.44,-97.44v0c0,-53.81463 43.62537,-97.44 97.44,-97.44v0c53.81463,0 97.44,43.62537 97.44,97.44v0c0,53.81463 -43.62537,97.44 -97.44,97.44z" fill="none"/><path d="M112,191.52c-43.91768,0 -79.52,-35.60232 -79.52,-79.52v0c0,-43.91768 35.60232,-79.52 79.52,-79.52h0c43.91768,0 79.52,35.60232 79.52,79.52v0c0,43.91768 -35.60232,79.52 -79.52,79.52z" fill="none"/><path d="M112,210.56c-54.43318,0 -98.56,-44.12682 -98.56,-98.56v0c0,-54.43318 44.12682,-98.56 98.56,-98.56v0c54.43318,0 98.56,44.12682 98.56,98.56v0c0,54.43318 -44.12682,98.56 -98.56,98.56z" fill="none"/><path d="M112,192.64c-44.53624,0 -80.64,-36.10376 -80.64,-80.64v0c0,-44.53624 36.10376,-80.64 80.64,-80.64h0c44.53624,0 80.64,36.10376 80.64,80.64v0c0,44.53624 -36.10376,80.64 -80.64,80.64z" fill="none"/><path d="M112,211.68c-55.05174,0 -99.68,-44.62826 -99.68,-99.68v0c0,-55.05174 44.62826,-99.68 99.68,-99.68v0c55.05174,0 99.68,44.62826 99.68,99.68v0c0,55.05174 -44.62826,99.68 -99.68,99.68z" fill="none"/><path d="M112,193.76c-45.1548,0 -81.76,-36.6052 -81.76,-81.76v0c0,-45.1548 36.6052,-81.76 81.76,-81.76h0c45.1548,0 81.76,36.6052 81.76,81.76v0c0,45.1548 -36.6052,81.76 -81.76,81.76z" fill="none"/><path d="M112,212.8c-55.6703,0 -100.8,-45.1297 -100.8,-100.8v0c0,-55.6703 45.1297,-100.8 100.8,-100.8h0c55.6703,0 100.8,45.1297 100.8,100.8v0c0,55.6703 -45.1297,100.8 -100.8,100.8z" fill="none"/><path d="M112,194.88c-45.77336,0 -82.88,-37.10664 -82.88,-82.88v0c0,-45.77336 37.10664,-82.88 82.88,-82.88v0c45.77336,0 82.88,37.10664 82.88,82.88v0c0,45.77336 -37.10664,82.88 -82.88,82.88z" fill="none"/><path d="M112,215.04c-56.90742,0 -103.04,-46.13258 -103.04,-103.04v0c0,-56.90742 46.13258,-103.04 103.04,-103.04h0c56.90742,0 103.04,46.13258 103.04,103.04v0c0,56.90742 -46.13258,103.04 -103.04,103.04z" fill="none"/><path d="M112,197.12c-47.01048,0 -85.12,-38.10952 -85.12,-85.12v0c0,-47.01048 38.10952,-85.12 85.12,-85.12v0c47.01048,0 85.12,38.10952 85.12,85.12v0c0,47.01048 -38.10952,85.12 -85.12,85.12z" fill="none"/><path d="M112,222.88c-61.23733,0 -110.88,-49.64267 -110.88,-110.88v0c0,-61.23733 49.64267,-110.88 110.88,-110.88v0c61.23733,0 110.88,49.64267 110.88,110.88v0c0,61.23733 -49.64267,110.88 -110.88,110.88z" fill="none"/><path d="M112,204.96c-51.34039,0 -92.96,-41.61961 -92.96,-92.96v0c0,-51.34039 41.61961,-92.96 92.96,-92.96h0c51.34039,0 92.96,41.61961 92.96,92.96v0c0,51.34039 -41.61961,92.96 -92.96,92.96z" fill="none"/><path d="M112,224c-61.85589,0 -112,-50.14411 -112,-112v0c0,-61.85589 50.14411,-112 112,-112v0c61.85589,0 112,50.14411 112,112v0c0,61.85589 -50.14411,112 -112,112z" fill="none"/><path d="M112,206.08c-51.95895,0 -94.08,-42.12105 -94.08,-94.08v0c0,-51.95895 42.12105,-94.08 94.08,-94.08h0c51.95895,0 94.08,42.12105 94.08,94.08v0c0,51.95895 -42.12105,94.08 -94.08,94.08z" fill="none"/><path d="M112,224c-61.85589,0 -112,-50.14411 -112,-112v0c0,-61.85589 50.14411,-112 112,-112v0c61.85589,0 112,50.14411 112,112v0c0,61.85589 -50.14411,112 -112,112z" fill="none"/><path d="M112,206.08c-51.95895,0 -94.08,-42.12105 -94.08,-94.08v0c0,-51.95895 42.12105,-94.08 94.08,-94.08h0c51.95895,0 94.08,42.12105 94.08,94.08v0c0,51.95895 -42.12105,94.08 -94.08,94.08z" fill="none"/><path d="M112,224c-61.85589,0 -112,-50.14411 -112,-112v0c0,-61.85589 50.14411,-112 112,-112v0c61.85589,0 112,50.14411 112,112v0c0,61.85589 -50.14411,112 -112,112z" fill="none"/><path d="M112,206.08c-51.95895,0 -94.08,-42.12105 -94.08,-94.08v0c0,-51.95895 42.12105,-94.08 94.08,-94.08h0c51.95895,0 94.08,42.12105 94.08,94.08v0c0,51.95895 -42.12105,94.08 -94.08,94.08z" fill="none"/><path d="M112,224c-61.85589,0 -112,-50.14411 -112,-112v0c0,-61.85589 50.14411,-112 112,-112v0c61.85589,0 112,50.14411 112,112v0c0,61.85589 -50.14411,112 -112,112z" fill="none"/><path d="M112,206.08c-51.95895,0 -94.08,-42.12105 -94.08,-94.08v0c0,-51.95895 42.12105,-94.08 94.08,-94.08h0c51.95895,0 94.08,42.12105 94.08,94.08v0c0,51.95895 -42.12105,94.08 -94.08,94.08z" fill="none"/><path d="M112,224c-61.85589,0 -112,-50.14411 -112,-112v0c0,-61.85589 50.14411,-112 112,-112v0c61.85589,0 112,50.14411 112,112v0c0,61.85589 -50.14411,112 -112,112z" fill="none"/><path d="M112,206.08c-51.95895,0 -94.08,-42.12105 -94.08,-94.08v0c0,-51.95895 42.12105,-94.08 94.08,-94.08h0c51.95895,0 94.08,42.12105 94.08,94.08v0c0,51.95895 -42.12105,94.08 -94.08,94.08z" fill="none"/><path d="M112,224c-61.85589,0 -112,-50.14411 -112,-112v0c0,-61.85589 50.14411,-112 112,-112v0c61.85589,0 112,50.14411 112,112v0c0,61.85589 -50.14411,112 -112,112z" fill="none"/><path d="M112,206.08c-51.95895,0 -94.08,-42.12105 -94.08,-94.08v0c0,-51.95895 42.12105,-94.08 94.08,-94.08h0c51.95895,0 94.08,42.12105 94.08,94.08v0c0,51.95895 -42.12105,94.08 -94.08,94.08z" fill="none"/><path d="M112,224c-61.85589,0 -112,-50.14411 -112,-112v0c0,-61.85589 50.14411,-112 112,-112v0c61.85589,0 112,50.14411 112,112v0c0,61.85589 -50.14411,112 -112,112z" fill="none"/><path d="M112,201.6c-49.48471,0 -89.6,-40.11529 -89.6,-89.6v0c0,-49.48471 40.11529,-89.6 89.6,-89.6v0c49.48471,0 89.6,40.11529 89.6,89.6v0c0,49.48471 -40.11529,89.6 -89.6,89.6z" fill="none"/><path d="M112,224c-61.85589,0 -112,-50.14411 -112,-112v0c0,-61.85589 50.14411,-112 112,-112v0c61.85589,0 112,50.14411 112,112v0c0,61.85589 -50.14411,112 -112,112z" fill="none"/><path d="M112,206.08c-51.95895,0 -94.08,-42.12105 -94.08,-94.08v0c0,-51.95895 42.12105,-94.08 94.08,-94.08h0c51.95895,0 94.08,42.12105 94.08,94.08v0c0,51.95895 -42.12105,94.08 -94.08,94.08z" fill="none"/><path d="M112,224c-61.85589,0 -112,-50.14411 -112,-112v0c0,-61.85589 50.14411,-112 112,-112v0c61.85589,0 112,50.14411 112,112v0c0,61.85589 -50.14411,112 -112,112z" fill="none"/><path d="M112,215.04c-56.90742,0 -103.04,-46.13258 -103.04,-103.04v0c0,-56.90742 46.13258,-103.04 103.04,-103.04v0c56.90742,0 103.04,46.13258 103.04,103.04v0c0,56.90742 -46.13258,103.04 -103.04,103.04z" fill="none"/><path d="M112,224c-61.85589,0 -112,-50.14411 -112,-112v0c0,-61.85589 50.14411,-112 112,-112v0c61.85589,0 112,50.14411 112,112v0c0,61.85589 -50.14411,112 -112,112z" fill="none"/><path d="M112,219.52c-59.38166,0 -107.52,-48.13834 -107.52,-107.52v0c0,-59.38166 48.13834,-107.52 107.52,-107.52h0c59.38166,0 107.52,48.13834 107.52,107.52v0c0,59.38166 -48.13834,107.52 -107.52,107.52z" fill="none"/><path d="M112,224c-61.85589,0 -112,-50.14411 -112,-112v0c0,-61.85589 50.14411,-112 112,-112v0c61.85589,0 112,50.14411 112,112v0c0,61.85589 -50.14411,112 -112,112z" fill="none"/><path d="M112,215.04c-56.90742,0 -103.04,-46.13258 -103.04,-103.04v0c0,-56.90742 46.13258,-103.04 103.04,-103.04v0c56.90742,0 103.04,46.13258 103.04,103.04v0c0,56.90742 -46.13258,103.04 -103.04,103.04z" fill="none"/><path d="M112,224c-61.85589,0 -112,-50.14411 -112,-112v0c0,-61.85589 50.14411,-112 112,-112v0c61.85589,0 112,50.14411 112,112v0c0,61.85589 -50.14411,112 -112,112z" fill="none"/><path d="M112,206.08c-51.95895,0 -94.08,-42.12105 -94.08,-94.08v0c0,-51.95895 42.12105,-94.08 94.08,-94.08h0c51.95895,0 94.08,42.12105 94.08,94.08v0c0,51.95895 -42.12105,94.08 -94.08,94.08z" fill="none"/><path d="M112,224c-61.85589,0 -112,-50.14411 -112,-112v0c0,-61.85589 50.14411,-112 112,-112v0c61.85589,0 112,50.14411 112,112v0c0,61.85589 -50.14411,112 -112,112z" fill="none"/><path d="M112,201.6c-49.48471,0 -89.6,-40.11529 -89.6,-89.6v0c0,-49.48471 40.11529,-89.6 89.6,-89.6v0c49.48471,0 89.6,40.11529 89.6,89.6v0c0,49.48471 -40.11529,89.6 -89.6,89.6z" fill="none"/><path d="M112,224c-61.85589,0 -112,-50.14411 -112,-112v0c0,-61.85589 50.14411,-112 112,-112v0c61.85589,0 112,50.14411 112,112v0c0,61.85589 -50.14411,112 -112,112z" fill="none"/><path d="M112,206.08c-51.95895,0 -94.08,-42.12105 -94.08,-94.08v0c0,-51.95895 42.12105,-94.08 94.08,-94.08h0c51.95895,0 94.08,42.12105 94.08,94.08v0c0,51.95895 -42.12105,94.08 -94.08,94.08z" fill="none"/><path d="M112,224c-61.85589,0 -112,-50.14411 -112,-112v0c0,-61.85589 50.14411,-112 112,-112v0c61.85589,0 112,50.14411 112,112v0c0,61.85589 -50.14411,112 -112,112z" fill="none"/><path d="M112,206.08c-51.95895,0 -94.08,-42.12105 -94.08,-94.08v0c0,-51.95895 42.12105,-94.08 94.08,-94.08h0c51.95895,0 94.08,42.12105 94.08,94.08v0c0,51.95895 -42.12105,94.08 -94.08,94.08z" fill="none"/><path d="M112,224c-61.85589,0 -112,-50.14411 -112,-112v0c0,-61.85589 50.14411,-112 112,-112v0c61.85589,0 112,50.14411 112,112v0c0,61.85589 -50.14411,112 -112,112z" fill="none"/><path d="M112,206.08c-51.95895,0 -94.08,-42.12105 -94.08,-94.08v0c0,-51.95895 42.12105,-94.08 94.08,-94.08h0c51.95895,0 94.08,42.12105 94.08,94.08v0c0,51.95895 -42.12105,94.08 -94.08,94.08z" fill="none"/><path d="M112,224c-61.85589,0 -112,-50.14411 -112,-112v0c0,-61.85589 50.14411,-112 112,-112v0c61.85589,0 112,50.14411 112,112v0c0,61.85589 -50.14411,112 -112,112z" fill="none"/><path d="M112,206.08c-51.95895,0 -94.08,-42.12105 -94.08,-94.08v0c0,-51.95895 42.12105,-94.08 94.08,-94.08h0c51.95895,0 94.08,42.12105 94.08,94.08v0c0,51.95895 -42.12105,94.08 -94.08,94.08z" fill="none"/><path d="M112,224c-61.85589,0 -112,-50.14411 -112,-112v0c0,-61.85589 50.14411,-112 112,-112v0c61.85589,0 112,50.14411 112,112v0c0,61.85589 -50.14411,112 -112,112z" fill="none"/><path d="M112,206.08c-51.95895,0 -94.08,-42.12105 -94.08,-94.08v0c0,-51.95895 42.12105,-94.08 94.08,-94.08h0c51.95895,0 94.08,42.12105 94.08,94.08v0c0,51.95895 -42.12105,94.08 -94.08,94.08z" fill="none"/><path d="M112,224c-61.85589,0 -112,-50.14411 -112,-112v0c0,-61.85589 50.14411,-112 112,-112v0c61.85589,0 112,50.14411 112,112v0c0,61.85589 -50.14411,112 -112,112z" fill="none"/><path d="M112,206.08c-51.95895,0 -94.08,-42.12105 -94.08,-94.08v0c0,-51.95895 42.12105,-94.08 94.08,-94.08h0c51.95895,0 94.08,42.12105 94.08,94.08v0c0,51.95895 -42.12105,94.08 -94.08,94.08z" fill="none"/><path d="M112,224c-61.85589,0 -112,-50.14411 -112,-112v0c0,-61.85589 50.14411,-112 112,-112v0c61.85589,0 112,50.14411 112,112v0c0,61.85589 -50.14411,112 -112,112z" fill="none"/><path d="M112,206.08c-51.95895,0 -94.08,-42.12105 -94.08,-94.08v0c0,-51.95895 42.12105,-94.08 94.08,-94.08h0c51.95895,0 94.08,42.12105 94.08,94.08v0c0,51.95895 -42.12105,94.08 -94.08,94.08z" fill="none"/><path d="M112,224c-61.85589,0 -112,-50.14411 -112,-112v0c0,-61.85589 50.14411,-112 112,-112v0c61.85589,0 112,50.14411 112,112v0c0,61.85589 -50.14411,112 -112,112z" fill="none"/><path d="M112,206.08c-51.95895,0 -94.08,-42.12105 -94.08,-94.08v0c0,-51.95895 42.12105,-94.08 94.08,-94.08h0c51.95895,0 94.08,42.12105 94.08,94.08v0c0,51.95895 -42.12105,94.08 -94.08,94.08z" fill="none"/><path d="M112,224c-61.85589,0 -112,-50.14411 -112,-112v0c0,-61.85589 50.14411,-112 112,-112v0c61.85589,0 112,50.14411 112,112v0c0,61.85589 -50.14411,112 -112,112z" fill="none"/><path d="M112,206.08c-51.95895,0 -94.08,-42.12105 -94.08,-94.08v0c0,-51.95895 42.12105,-94.08 94.08,-94.08h0c51.95895,0 94.08,42.12105 94.08,94.08v0c0,51.95895 -42.12105,94.08 -94.08,94.08z" fill="none"/><path d="M112,224c-61.85589,0 -112,-50.14411 -112,-112v0c0,-61.85589 50.14411,-112 112,-112v0c61.85589,0 112,50.14411 112,112v0c0,61.85589 -50.14411,112 -112,112z" fill="none"/><path d="M112,206.08c-51.95895,0 -94.08,-42.12105 -94.08,-94.08v0c0,-51.95895 42.12105,-94.08 94.08,-94.08h0c51.95895,0 94.08,42.12105 94.08,94.08v0c0,51.95895 -42.12105,94.08 -94.08,94.08z" fill="none"/><path d="M112,224c-61.85589,0 -112,-50.14411 -112,-112v0c0,-61.85589 50.14411,-112 112,-112v0c61.85589,0 112,50.14411 112,112v0c0,61.85589 -50.14411,112 -112,112z" fill="none"/><path d="M112,206.08c-51.95895,0 -94.08,-42.12105 -94.08,-94.08v0c0,-51.95895 42.12105,-94.08 94.08,-94.08h0c51.95895,0 94.08,42.12105 94.08,94.08v0c0,51.95895 -42.12105,94.08 -94.08,94.08z" fill="none"/><path d="M112,224c-61.85589,0 -112,-50.14411 -112,-112v0c0,-61.85589 50.14411,-112 112,-112v0c61.85589,0 112,50.14411 112,112v0c0,61.85589 -50.14411,112 -112,112z" fill="none"/><path d="M112,206.08c-51.95895,0 -94.08,-42.12105 -94.08,-94.08v0c0,-51.95895 42.12105,-94.08 94.08,-94.08h0c51.95895,0 94.08,42.12105 94.08,94.08v0c0,51.95895 -42.12105,94.08 -94.08,94.08z" fill="none"/><path d="M112,224c-61.85589,0 -112,-50.14411 -112,-112v0c0,-61.85589 50.14411,-112 112,-112v0c61.85589,0 112,50.14411 112,112v0c0,61.85589 -50.14411,112 -112,112z" fill="none"/><path d="M112,206.08c-51.95895,0 -94.08,-42.12105 -94.08,-94.08v0c0,-51.95895 42.12105,-94.08 94.08,-94.08h0c51.95895,0 94.08,42.12105 94.08,94.08v0c0,51.95895 -42.12105,94.08 -94.08,94.08z" fill="none"/><path d="M112,224c-61.85589,0 -112,-50.14411 -112,-112v0c0,-61.85589 50.14411,-112 112,-112v0c61.85589,0 112,50.14411 112,112v0c0,61.85589 -50.14411,112 -112,112z" fill="none"/><path d="M112,206.08c-51.95895,0 -94.08,-42.12105 -94.08,-94.08v0c0,-51.95895 42.12105,-94.08 94.08,-94.08h0c51.95895,0 94.08,42.12105 94.08,94.08v0c0,51.95895 -42.12105,94.08 -94.08,94.08z" fill="none"/><path d="M112,224c-61.85589,0 -112,-50.14411 -112,-112v0c0,-61.85589 50.14411,-112 112,-112v0c61.85589,0 112,50.14411 112,112v0c0,61.85589 -50.14411,112 -112,112z" fill="none"/><path d="M112,206.08c-51.95895,0 -94.08,-42.12105 -94.08,-94.08v0c0,-51.95895 42.12105,-94.08 94.08,-94.08h0c51.95895,0 94.08,42.12105 94.08,94.08v0c0,51.95895 -42.12105,94.08 -94.08,94.08z" fill="none"/><path d="M112,224c-61.85589,0 -112,-50.14411 -112,-112v0c0,-61.85589 50.14411,-112 112,-112v0c61.85589,0 112,50.14411 112,112v0c0,61.85589 -50.14411,112 -112,112z" fill="none"/><path d="M112,206.08c-51.95895,0 -94.08,-42.12105 -94.08,-94.08v0c0,-51.95895 42.12105,-94.08 94.08,-94.08h0c51.95895,0 94.08,42.12105 94.08,94.08v0c0,51.95895 -42.12105,94.08 -94.08,94.08z" fill="none"/><path d="M112,224c-61.85589,0 -112,-50.14411 -112,-112v0c0,-61.85589 50.14411,-112 112,-112v0c61.85589,0 112,50.14411 112,112v0c0,61.85589 -50.14411,112 -112,112z" fill="none"/><path d="M112,206.08c-51.95895,0 -94.08,-42.12105 -94.08,-94.08v0c0,-51.95895 42.12105,-94.08 94.08,-94.08h0c51.95895,0 94.08,42.12105 94.08,94.08v0c0,51.95895 -42.12105,94.08 -94.08,94.08z" fill="none"/><path d="M112,224c-61.85589,0 -112,-50.14411 -112,-112v0c0,-61.85589 50.14411,-112 112,-112v0c61.85589,0 112,50.14411 112,112v0c0,61.85589 -50.14411,112 -112,112z" fill="none"/><path d="M112,206.08c-51.95895,0 -94.08,-42.12105 -94.08,-94.08v0c0,-51.95895 42.12105,-94.08 94.08,-94.08h0c51.95895,0 94.08,42.12105 94.08,94.08v0c0,51.95895 -42.12105,94.08 -94.08,94.08z" fill="none"/><path d="M112,224c-61.85589,0 -112,-50.14411 -112,-112v0c0,-61.85589 50.14411,-112 112,-112v0c61.85589,0 112,50.14411 112,112v0c0,61.85589 -50.14411,112 -112,112z" fill="none"/><path d="M112,206.08c-51.95895,0 -94.08,-42.12105 -94.08,-94.08v0c0,-51.95895 42.12105,-94.08 94.08,-94.08h0c51.95895,0 94.08,42.12105 94.08,94.08v0c0,51.95895 -42.12105,94.08 -94.08,94.08z" fill="none"/><path d="M112,224c-61.85589,0 -112,-50.14411 -112,-112v0c0,-61.85589 50.14411,-112 112,-112v0c61.85589,0 112,50.14411 112,112v0c0,61.85589 -50.14411,112 -112,112z" fill="none"/><path d="M112,206.08c-51.95895,0 -94.08,-42.12105 -94.08,-94.08v0c0,-51.95895 42.12105,-94.08 94.08,-94.08h0c51.95895,0 94.08,42.12105 94.08,94.08v0c0,51.95895 -42.12105,94.08 -94.08,94.08z" fill="none"/><path d="M112,224c-61.85589,0 -112,-50.14411 -112,-112v0c0,-61.85589 50.14411,-112 112,-112v0c61.85589,0 112,50.14411 112,112v0c0,61.85589 -50.14411,112 -112,112z" fill="none"/><path d="M112,206.08c-51.95895,0 -94.08,-42.12105 -94.08,-94.08v0c0,-51.95895 42.12105,-94.08 94.08,-94.08h0c51.95895,0 94.08,42.12105 94.08,94.08v0c0,51.95895 -42.12105,94.08 -94.08,94.08z" fill="none"/><path d="M112,224c-61.85589,0 -112,-50.14411 -112,-112v0c0,-61.85589 50.14411,-112 112,-112v0c61.85589,0 112,50.14411 112,112v0c0,61.85589 -50.14411,112 -112,112z" fill="none"/><path d="M112,206.08c-51.95895,0 -94.08,-42.12105 -94.08,-94.08v0c0,-51.95895 42.12105,-94.08 94.08,-94.08h0c51.95895,0 94.08,42.12105 94.08,94.08v0c0,51.95895 -42.12105,94.08 -94.08,94.08z" fill="none"/><path d="M112,224c-61.85589,0 -112,-50.14411 -112,-112v0c0,-61.85589 50.14411,-112 112,-112v0c61.85589,0 112,50.14411 112,112v0c0,61.85589 -50.14411,112 -112,112z" fill="none"/><path d="M112,206.08c-51.95895,0 -94.08,-42.12105 -94.08,-94.08v0c0,-51.95895 42.12105,-94.08 94.08,-94.08h0c51.95895,0 94.08,42.12105 94.08,94.08v0c0,51.95895 -42.12105,94.08 -94.08,94.08z" fill="none"/><path d="M112,224c-61.85589,0 -112,-50.14411 -112,-112v0c0,-61.85589 50.14411,-112 112,-112v0c61.85589,0 112,50.14411 112,112v0c0,61.85589 -50.14411,112 -112,112z" fill="none"/><path d="M112,206.08c-51.95895,0 -94.08,-42.12105 -94.08,-94.08v0c0,-51.95895 42.12105,-94.08 94.08,-94.08h0c51.95895,0 94.08,42.12105 94.08,94.08v0c0,51.95895 -42.12105,94.08 -94.08,94.08z" fill="none"/><path d="M112,224c-61.85589,0 -112,-50.14411 -112,-112v0c0,-61.85589 50.14411,-112 112,-112v0c61.85589,0 112,50.14411 112,112v0c0,61.85589 -50.14411,112 -112,112z" fill="none"/><path d="M112,206.08c-51.95895,0 -94.08,-42.12105 -94.08,-94.08v0c0,-51.95895 42.12105,-94.08 94.08,-94.08h0c51.95895,0 94.08,42.12105 94.08,94.08v0c0,51.95895 -42.12105,94.08 -94.08,94.08z" fill="none"/><path d="M112,224c-61.85589,0 -112,-50.14411 -112,-112v0c0,-61.85589 50.14411,-112 112,-112v0c61.85589,0 112,50.14411 112,112v0c0,61.85589 -50.14411,112 -112,112z" fill="none"/><path d="M112,206.08c-51.95895,0 -94.08,-42.12105 -94.08,-94.08v0c0,-51.95895 42.12105,-94.08 94.08,-94.08h0c51.95895,0 94.08,42.12105 94.08,94.08v0c0,51.95895 -42.12105,94.08 -94.08,94.08z" fill="none"/></g></svg>
