<?xml version="1.0"?>
<svg xmlns="http://www.w3.org/2000/svg" xmlns:xlink="http://www.w3.org/1999/xlink" version="1.1" viewBox="0 0 224 224" width="50px" height="50px"><g fill="none" fill-rule="nonzero" stroke="none" stroke-width="1" stroke-linecap="butt" stroke-linejoin="miter" stroke-miterlimit="10" stroke-dasharray="" stroke-dashoffset="0" font-family="none" font-weight="none" font-size="none" text-anchor="none" style="mix-blend-mode: normal"><path d="M0,224v-224h224v224z" fill="none"/><path d="M0,112c0,-61.85589 50.14411,-112 112,-112c61.85589,0 112,50.14411 112,112c0,61.85589 -50.14411,112 -112,112c-61.85589,0 -112,-50.14411 -112,-112zM112,206.08c51.95895,0 94.08,-42.12105 94.08,-94.08c0,-51.95895 -42.12105,-94.08 -94.08,-94.08c-51.95895,0 -94.08,42.12105 -94.08,94.08c0,51.95895 42.12105,94.08 94.08,94.08z" fill="#000000"/><g fill="#000000"><path d="M112,8.96c-56.85436,0 -103.04,46.18564 -103.04,103.04c0,56.85436 46.18564,103.04 103.04,103.04c56.85436,0 103.04,-46.18564 103.04,-103.04c0,-56.85436 -46.18564,-103.04 -103.04,-103.04zM112,17.92c52.01201,0 94.08,42.06799 94.08,94.08c0,52.01201 -42.06799,94.08 -94.08,94.08c-52.01201,0 -94.08,-42.06799 -94.08,-94.08c0,-52.01201 42.06799,-94.08 94.08,-94.08zM112,49.28c-7.42271,0 -13.44,6.01729 -13.44,13.44c0,7.42271 6.01729,13.44 13.44,13.44c7.42271,0 13.44,-6.01729 13.44,-13.44c0,-7.42271 -6.01729,-13.44 -13.44,-13.44zM94.08,94.08v8.96h4.48h4.48v58.24h-4.48h-4.48v8.96h4.48h4.48h17.92h4.48h4.48v-8.96h-4.48h-4.48v-67.2h-4.48h-17.92z"/></g><path d="M112,224c-61.85589,0 -112,-50.14411 -112,-112v0c0,-61.85589 50.14411,-112 112,-112v0c61.85589,0 112,50.14411 112,112v0c0,61.85589 -50.14411,112 -112,112z" fill="none"/><path d="M112,206.08c-51.95895,0 -94.08,-42.12105 -94.08,-94.08v0c0,-51.95895 42.12105,-94.08 94.08,-94.08h0c51.95895,0 94.08,42.12105 94.08,94.08v0c0,51.95895 -42.12105,94.08 -94.08,94.08z" fill="none"/><path d="M112,224c-61.85589,0 -112,-50.14411 -112,-112v0c0,-61.85589 50.14411,-112 112,-112v0c61.85589,0 112,50.14411 112,112v0c0,61.85589 -50.14411,112 -112,112z" fill="none"/><path d="M112,201.6c-49.48471,0 -89.6,-40.11529 -89.6,-89.6v0c0,-49.48471 40.11529,-89.6 89.6,-89.6v0c49.48471,0 89.6,40.11529 89.6,89.6v0c0,49.48471 -40.11529,89.6 -89.6,89.6z" fill="none"/><path d="M112,224c-61.85589,0 -112,-50.14411 -112,-112v0c0,-61.85589 50.14411,-112 112,-112v0c61.85589,0 112,50.14411 112,112v0c0,61.85589 -50.14411,112 -112,112z" fill="none"/><path d="M112,201.6c-49.48471,0 -89.6,-40.11529 -89.6,-89.6v0c0,-49.48471 40.11529,-89.6 89.6,-89.6v0c49.48471,0 89.6,40.11529 89.6,89.6v0c0,49.48471 -40.11529,89.6 -89.6,89.6z" fill="none"/><path d="M112,224c-61.85589,0 -112,-50.14411 -112,-112v0c0,-61.85589 50.14411,-112 112,-112v0c61.85589,0 112,50.14411 112,112v0c0,61.85589 -50.14411,112 -112,112z" fill="none"/><path d="M112,201.6c-49.48471,0 -89.6,-40.11529 -89.6,-89.6v0c0,-49.48471 40.11529,-89.6 89.6,-89.6v0c49.48471,0 89.6,40.11529 89.6,89.6v0c0,49.48471 -40.11529,89.6 -89.6,89.6z" fill="none"/><path d="M112,224c-61.85589,0 -112,-50.14411 -112,-112v0c0,-61.85589 50.14411,-112 112,-112v0c61.85589,0 112,50.14411 112,112v0c0,61.85589 -50.14411,112 -112,112z" fill="none"/><path d="M112,201.6c-49.48471,0 -89.6,-40.11529 -89.6,-89.6v0c0,-49.48471 40.11529,-89.6 89.6,-89.6v0c49.48471,0 89.6,40.11529 89.6,89.6v0c0,49.48471 -40.11529,89.6 -89.6,89.6z" fill="none"/><path d="M112,224c-61.85589,0 -112,-50.14411 -112,-112v0c0,-61.85589 50.14411,-112 112,-112v0c61.85589,0 112,50.14411 112,112v0c0,61.85589 -50.14411,112 -112,112z" fill="none"/><path d="M112,201.6c-49.48471,0 -89.6,-40.11529 -89.6,-89.6v0c0,-49.48471 40.11529,-89.6 89.6,-89.6v0c49.48471,0 89.6,40.11529 89.6,89.6v0c0,49.48471 -40.11529,89.6 -89.6,89.6z" fill="none"/><path d="M112,224c-61.85589,0 -112,-50.14411 -112,-112v0c0,-61.85589 50.14411,-112 112,-112v0c61.85589,0 112,50.14411 112,112v0c0,61.85589 -50.14411,112 -112,112z" fill="none"/><path d="M112,201.6c-49.48471,0 -89.6,-40.11529 -89.6,-89.6v0c0,-49.48471 40.11529,-89.6 89.6,-89.6v0c49.48471,0 89.6,40.11529 89.6,89.6v0c0,49.48471 -40.11529,89.6 -89.6,89.6z" fill="none"/><path d="M112,224c-61.85589,0 -112,-50.14411 -112,-112v0c0,-61.85589 50.14411,-112 112,-112v0c61.85589,0 112,50.14411 112,112v0c0,61.85589 -50.14411,112 -112,112z" fill="none"/><path d="M112,201.6c-49.48471,0 -89.6,-40.11529 -89.6,-89.6v0c0,-49.48471 40.11529,-89.6 89.6,-89.6v0c49.48471,0 89.6,40.11529 89.6,89.6v0c0,49.48471 -40.11529,89.6 -89.6,89.6z" fill="none"/><path d="M112,224c-61.85589,0 -112,-50.14411 -112,-112v0c0,-61.85589 50.14411,-112 112,-112v0c61.85589,0 112,50.14411 112,112v0c0,61.85589 -50.14411,112 -112,112z" fill="none"/><path d="M112,201.6c-49.48471,0 -89.6,-40.11529 -89.6,-89.6v0c0,-49.48471 40.11529,-89.6 89.6,-89.6v0c49.48471,0 89.6,40.11529 89.6,89.6v0c0,49.48471 -40.11529,89.6 -89.6,89.6z" fill="none"/><path d="M112,224c-61.85589,0 -112,-50.14411 -112,-112v0c0,-61.85589 50.14411,-112 112,-112v0c61.85589,0 112,50.14411 112,112v0c0,61.85589 -50.14411,112 -112,112z" fill="none"/><path d="M112,201.6c-49.48471,0 -89.6,-40.11529 -89.6,-89.6v0c0,-49.48471 40.11529,-89.6 89.6,-89.6v0c49.48471,0 89.6,40.11529 89.6,89.6v0c0,49.48471 -40.11529,89.6 -89.6,89.6z" fill="none"/><path d="M112,224c-61.85589,0 -112,-50.14411 -112,-112v0c0,-61.85589 50.14411,-112 112,-112v0c61.85589,0 112,50.14411 112,112v0c0,61.85589 -50.14411,112 -112,112z" fill="none"/><path d="M112,201.6c-49.48471,0 -89.6,-40.11529 -89.6,-89.6v0c0,-49.48471 40.11529,-89.6 89.6,-89.6v0c49.48471,0 89.6,40.11529 89.6,89.6v0c0,49.48471 -40.11529,89.6 -89.6,89.6z" fill="none"/><path d="M112,224c-61.85589,0 -112,-50.14411 -112,-112v0c0,-61.85589 50.14411,-112 112,-112v0c61.85589,0 112,50.14411 112,112v0c0,61.85589 -50.14411,112 -112,112z" fill="none"/><path d="M112,201.6c-49.48471,0 -89.6,-40.11529 -89.6,-89.6v0c0,-49.48471 40.11529,-89.6 89.6,-89.6v0c49.48471,0 89.6,40.11529 89.6,89.6v0c0,49.48471 -40.11529,89.6 -89.6,89.6z" fill="none"/><path d="M112,224c-61.85589,0 -112,-50.14411 -112,-112v0c0,-61.85589 50.14411,-112 112,-112v0c61.85589,0 112,50.14411 112,112v0c0,61.85589 -50.14411,112 -112,112z" fill="none"/><path d="M112,201.6c-49.48471,0 -89.6,-40.11529 -89.6,-89.6v0c0,-49.48471 40.11529,-89.6 89.6,-89.6v0c49.48471,0 89.6,40.11529 89.6,89.6v0c0,49.48471 -40.11529,89.6 -89.6,89.6z" fill="none"/><path d="M112,224c-61.85589,0 -112,-50.14411 -112,-112v0c0,-61.85589 50.14411,-112 112,-112v0c61.85589,0 112,50.14411 112,112v0c0,61.85589 -50.14411,112 -112,112z" fill="none"/><path d="M112,201.6c-49.48471,0 -89.6,-40.11529 -89.6,-89.6v0c0,-49.48471 40.11529,-89.6 89.6,-89.6v0c49.48471,0 89.6,40.11529 89.6,89.6v0c0,49.48471 -40.11529,89.6 -89.6,89.6z" fill="none"/><path d="M112,224c-61.85589,0 -112,-50.14411 -112,-112v0c0,-61.85589 50.14411,-112 112,-112v0c61.85589,0 112,50.14411 112,112v0c0,61.85589 -50.14411,112 -112,112z" fill="none"/><path d="M112,201.6c-49.48471,0 -89.6,-40.11529 -89.6,-89.6v0c0,-49.48471 40.11529,-89.6 89.6,-89.6v0c49.48471,0 89.6,40.11529 89.6,89.6v0c0,49.48471 -40.11529,89.6 -89.6,89.6z" fill="none"/><path d="M112,224c-61.85589,0 -112,-50.14411 -112,-112v0c0,-61.85589 50.14411,-112 112,-112v0c61.85589,0 112,50.14411 112,112v0c0,61.85589 -50.14411,112 -112,112z" fill="none"/><path d="M112,201.6c-49.48471,0 -89.6,-40.11529 -89.6,-89.6v0c0,-49.48471 40.11529,-89.6 89.6,-89.6v0c49.48471,0 89.6,40.11529 89.6,89.6v0c0,49.48471 -40.11529,89.6 -89.6,89.6z" fill="none"/><path d="M112,224c-61.85589,0 -112,-50.14411 -112,-112v0c0,-61.85589 50.14411,-112 112,-112v0c61.85589,0 112,50.14411 112,112v0c0,61.85589 -50.14411,112 -112,112z" fill="none"/><path d="M112,201.6c-49.48471,0 -89.6,-40.11529 -89.6,-89.6v0c0,-49.48471 40.11529,-89.6 89.6,-89.6v0c49.48471,0 89.6,40.11529 89.6,89.6v0c0,49.48471 -40.11529,89.6 -89.6,89.6z" fill="none"/><path d="M112,224c-61.85589,0 -112,-50.14411 -112,-112v0c0,-61.85589 50.14411,-112 112,-112v0c61.85589,0 112,50.14411 112,112v0c0,61.85589 -50.14411,112 -112,112z" fill="none"/><path d="M112,201.6c-49.48471,0 -89.6,-40.11529 -89.6,-89.6v0c0,-49.48471 40.11529,-89.6 89.6,-89.6v0c49.48471,0 89.6,40.11529 89.6,89.6v0c0,49.48471 -40.11529,89.6 -89.6,89.6z" fill="none"/><path d="M112,224c-61.85589,0 -112,-50.14411 -112,-112v0c0,-61.85589 50.14411,-112 112,-112v0c61.85589,0 112,50.14411 112,112v0c0,61.85589 -50.14411,112 -112,112z" fill="none"/><path d="M112,201.6c-49.48471,0 -89.6,-40.11529 -89.6,-89.6v0c0,-49.48471 40.11529,-89.6 89.6,-89.6v0c49.48471,0 89.6,40.11529 89.6,89.6v0c0,49.48471 -40.11529,89.6 -89.6,89.6z" fill="none"/><path d="M112,224c-61.85589,0 -112,-50.14411 -112,-112v0c0,-61.85589 50.14411,-112 112,-112v0c61.85589,0 112,50.14411 112,112v0c0,61.85589 -50.14411,112 -112,112z" fill="none"/><path d="M112,201.6c-49.48471,0 -89.6,-40.11529 -89.6,-89.6v0c0,-49.48471 40.11529,-89.6 89.6,-89.6v0c49.48471,0 89.6,40.11529 89.6,89.6v0c0,49.48471 -40.11529,89.6 -89.6,89.6z" fill="none"/><path d="M112,224c-61.85589,0 -112,-50.14411 -112,-112v0c0,-61.85589 50.14411,-112 112,-112v0c61.85589,0 112,50.14411 112,112v0c0,61.85589 -50.14411,112 -112,112z" fill="none"/><path d="M112,201.6c-49.48471,0 -89.6,-40.11529 -89.6,-89.6v0c0,-49.48471 40.11529,-89.6 89.6,-89.6v0c49.48471,0 89.6,40.11529 89.6,89.6v0c0,49.48471 -40.11529,89.6 -89.6,89.6z" fill="none"/><path d="M112,224c-61.85589,0 -112,-50.14411 -112,-112v0c0,-61.85589 50.14411,-112 112,-112v0c61.85589,0 112,50.14411 112,112v0c0,61.85589 -50.14411,112 -112,112z" fill="none"/><path d="M112,201.6c-49.48471,0 -89.6,-40.11529 -89.6,-89.6v0c0,-49.48471 40.11529,-89.6 89.6,-89.6v0c49.48471,0 89.6,40.11529 89.6,89.6v0c0,49.48471 -40.11529,89.6 -89.6,89.6z" fill="none"/><path d="M112,224c-61.85589,0 -112,-50.14411 -112,-112v0c0,-61.85589 50.14411,-112 112,-112v0c61.85589,0 112,50.14411 112,112v0c0,61.85589 -50.14411,112 -112,112z" fill="none"/><path d="M112,201.6c-49.48471,0 -89.6,-40.11529 -89.6,-89.6v0c0,-49.48471 40.11529,-89.6 89.6,-89.6v0c49.48471,0 89.6,40.11529 89.6,89.6v0c0,49.48471 -40.11529,89.6 -89.6,89.6z" fill="none"/><path d="M112,224c-61.85589,0 -112,-50.14411 -112,-112v0c0,-61.85589 50.14411,-112 112,-112v0c61.85589,0 112,50.14411 112,112v0c0,61.85589 -50.14411,112 -112,112z" fill="none"/><path d="M112,201.6c-49.48471,0 -89.6,-40.11529 -89.6,-89.6v0c0,-49.48471 40.11529,-89.6 89.6,-89.6v0c49.48471,0 89.6,40.11529 89.6,89.6v0c0,49.48471 -40.11529,89.6 -89.6,89.6z" fill="none"/><path d="M112,224c-61.85589,0 -112,-50.14411 -112,-112v0c0,-61.85589 50.14411,-112 112,-112v0c61.85589,0 112,50.14411 112,112v0c0,61.85589 -50.14411,112 -112,112z" fill="none"/><path d="M112,201.6c-49.48471,0 -89.6,-40.11529 -89.6,-89.6v0c0,-49.48471 40.11529,-89.6 89.6,-89.6v0c49.48471,0 89.6,40.11529 89.6,89.6v0c0,49.48471 -40.11529,89.6 -89.6,89.6z" fill="none"/><path d="M112,224c-61.85589,0 -112,-50.14411 -112,-112v0c0,-61.85589 50.14411,-112 112,-112v0c61.85589,0 112,50.14411 112,112v0c0,61.85589 -50.14411,112 -112,112z" fill="none"/><path d="M112,201.6c-49.48471,0 -89.6,-40.11529 -89.6,-89.6v0c0,-49.48471 40.11529,-89.6 89.6,-89.6v0c49.48471,0 89.6,40.11529 89.6,89.6v0c0,49.48471 -40.11529,89.6 -89.6,89.6z" fill="none"/><path d="M112,224c-61.85589,0 -112,-50.14411 -112,-112v0c0,-61.85589 50.14411,-112 112,-112v0c61.85589,0 112,50.14411 112,112v0c0,61.85589 -50.14411,112 -112,112z" fill="none"/><path d="M112,201.6c-49.48471,0 -89.6,-40.11529 -89.6,-89.6v0c0,-49.48471 40.11529,-89.6 89.6,-89.6v0c49.48471,0 89.6,40.11529 89.6,89.6v0c0,49.48471 -40.11529,89.6 -89.6,89.6z" fill="none"/><path d="M112,224c-61.85589,0 -112,-50.14411 -112,-112v0c0,-61.85589 50.14411,-112 112,-112v0c61.85589,0 112,50.14411 112,112v0c0,61.85589 -50.14411,112 -112,112z" fill="none"/><path d="M112,201.6c-49.48471,0 -89.6,-40.11529 -89.6,-89.6v0c0,-49.48471 40.11529,-89.6 89.6,-89.6v0c49.48471,0 89.6,40.11529 89.6,89.6v0c0,49.48471 -40.11529,89.6 -89.6,89.6z" fill="none"/><path d="M112,224c-61.85589,0 -112,-50.14411 -112,-112v0c0,-61.85589 50.14411,-112 112,-112v0c61.85589,0 112,50.14411 112,112v0c0,61.85589 -50.14411,112 -112,112z" fill="none"/><path d="M112,201.6c-49.48471,0 -89.6,-40.11529 -89.6,-89.6v0c0,-49.48471 40.11529,-89.6 89.6,-89.6v0c49.48471,0 89.6,40.11529 89.6,89.6v0c0,49.48471 -40.11529,89.6 -89.6,89.6z" fill="none"/><path d="M112,224c-61.85589,0 -112,-50.14411 -112,-112v0c0,-61.85589 50.14411,-112 112,-112v0c61.85589,0 112,50.14411 112,112v0c0,61.85589 -50.14411,112 -112,112z" fill="none"/><path d="M112,201.6c-49.48471,0 -89.6,-40.11529 -89.6,-89.6v0c0,-49.48471 40.11529,-89.6 89.6,-89.6v0c49.48471,0 89.6,40.11529 89.6,89.6v0c0,49.48471 -40.11529,89.6 -89.6,89.6z" fill="none"/><path d="M112,224c-61.85589,0 -112,-50.14411 -112,-112v0c0,-61.85589 50.14411,-112 112,-112v0c61.85589,0 112,50.14411 112,112v0c0,61.85589 -50.14411,112 -112,112z" fill="none"/><path d="M112,201.6c-49.48471,0 -89.6,-40.11529 -89.6,-89.6v0c0,-49.48471 40.11529,-89.6 89.6,-89.6v0c49.48471,0 89.6,40.11529 89.6,89.6v0c0,49.48471 -40.11529,89.6 -89.6,89.6z" fill="none"/><path d="M112,224c-61.85589,0 -112,-50.14411 -112,-112v0c0,-61.85589 50.14411,-112 112,-112v0c61.85589,0 112,50.14411 112,112v0c0,61.85589 -50.14411,112 -112,112z" fill="none"/><path d="M112,201.6c-49.48471,0 -89.6,-40.11529 -89.6,-89.6v0c0,-49.48471 40.11529,-89.6 89.6,-89.6v0c49.48471,0 89.6,40.11529 89.6,89.6v0c0,49.48471 -40.11529,89.6 -89.6,89.6z" fill="none"/><path d="M112,224c-61.85589,0 -112,-50.14411 -112,-112v0c0,-61.85589 50.14411,-112 112,-112v0c61.85589,0 112,50.14411 112,112v0c0,61.85589 -50.14411,112 -112,112z" fill="none"/><path d="M112,201.6c-49.48471,0 -89.6,-40.11529 -89.6,-89.6v0c0,-49.48471 40.11529,-89.6 89.6,-89.6v0c49.48471,0 89.6,40.11529 89.6,89.6v0c0,49.48471 -40.11529,89.6 -89.6,89.6z" fill="none"/><path d="M112,224c-61.85589,0 -112,-50.14411 -112,-112v0c0,-61.85589 50.14411,-112 112,-112v0c61.85589,0 112,50.14411 112,112v0c0,61.85589 -50.14411,112 -112,112z" fill="none"/><path d="M112,201.6c-49.48471,0 -89.6,-40.11529 -89.6,-89.6v0c0,-49.48471 40.11529,-89.6 89.6,-89.6v0c49.48471,0 89.6,40.11529 89.6,89.6v0c0,49.48471 -40.11529,89.6 -89.6,89.6z" fill="none"/><path d="M112,224c-61.85589,0 -112,-50.14411 -112,-112v0c0,-61.85589 50.14411,-112 112,-112v0c61.85589,0 112,50.14411 112,112v0c0,61.85589 -50.14411,112 -112,112z" fill="none"/><path d="M112,201.6c-49.48471,0 -89.6,-40.11529 -89.6,-89.6v0c0,-49.48471 40.11529,-89.6 89.6,-89.6v0c49.48471,0 89.6,40.11529 89.6,89.6v0c0,49.48471 -40.11529,89.6 -89.6,89.6z" fill="none"/><path d="M112,224c-61.85589,0 -112,-50.14411 -112,-112v0c0,-61.85589 50.14411,-112 112,-112v0c61.85589,0 112,50.14411 112,112v0c0,61.85589 -50.14411,112 -112,112z" fill="none"/><path d="M112,201.6c-49.48471,0 -89.6,-40.11529 -89.6,-89.6v0c0,-49.48471 40.11529,-89.6 89.6,-89.6v0c49.48471,0 89.6,40.11529 89.6,89.6v0c0,49.48471 -40.11529,89.6 -89.6,89.6z" fill="none"/><path d="M112,224c-61.85589,0 -112,-50.14411 -112,-112v0c0,-61.85589 50.14411,-112 112,-112v0c61.85589,0 112,50.14411 112,112v0c0,61.85589 -50.14411,112 -112,112z" fill="none"/><path d="M112,201.6c-49.48471,0 -89.6,-40.11529 -89.6,-89.6v0c0,-49.48471 40.11529,-89.6 89.6,-89.6v0c49.48471,0 89.6,40.11529 89.6,89.6v0c0,49.48471 -40.11529,89.6 -89.6,89.6z" fill="none"/><path d="M112,224c-61.85589,0 -112,-50.14411 -112,-112v0c0,-61.85589 50.14411,-112 112,-112v0c61.85589,0 112,50.14411 112,112v0c0,61.85589 -50.14411,112 -112,112z" fill="none"/><path d="M112,201.6c-49.48471,0 -89.6,-40.11529 -89.6,-89.6v0c0,-49.48471 40.11529,-89.6 89.6,-89.6v0c49.48471,0 89.6,40.11529 89.6,89.6v0c0,49.48471 -40.11529,89.6 -89.6,89.6z" fill="none"/><path d="M112,224c-61.85589,0 -112,-50.14411 -112,-112v0c0,-61.85589 50.14411,-112 112,-112v0c61.85589,0 112,50.14411 112,112v0c0,61.85589 -50.14411,112 -112,112z" fill="none"/><path d="M112,201.6c-49.48471,0 -89.6,-40.11529 -89.6,-89.6v0c0,-49.48471 40.11529,-89.6 89.6,-89.6v0c49.48471,0 89.6,40.11529 89.6,89.6v0c0,49.48471 -40.11529,89.6 -89.6,89.6z" fill="none"/><path d="M112,224c-61.85589,0 -112,-50.14411 -112,-112v0c0,-61.85589 50.14411,-112 112,-112v0c61.85589,0 112,50.14411 112,112v0c0,61.85589 -50.14411,112 -112,112z" fill="none"/><path d="M112,201.6c-49.48471,0 -89.6,-40.11529 -89.6,-89.6v0c0,-49.48471 40.11529,-89.6 89.6,-89.6v0c49.48471,0 89.6,40.11529 89.6,89.6v0c0,49.48471 -40.11529,89.6 -89.6,89.6z" fill="none"/><path d="M112,224c-61.85589,0 -112,-50.14411 -112,-112v0c0,-61.85589 50.14411,-112 112,-112v0c61.85589,0 112,50.14411 112,112v0c0,61.85589 -50.14411,112 -112,112z" fill="none"/><path d="M112,201.6c-49.48471,0 -89.6,-40.11529 -89.6,-89.6v0c0,-49.48471 40.11529,-89.6 89.6,-89.6v0c49.48471,0 89.6,40.11529 89.6,89.6v0c0,49.48471 -40.11529,89.6 -89.6,89.6z" fill="none"/><path d="M112,224c-61.85589,0 -112,-50.14411 -112,-112v0c0,-61.85589 50.14411,-112 112,-112v0c61.85589,0 112,50.14411 112,112v0c0,61.85589 -50.14411,112 -112,112z" fill="none"/><path d="M112,201.6c-49.48471,0 -89.6,-40.11529 -89.6,-89.6v0c0,-49.48471 40.11529,-89.6 89.6,-89.6v0c49.48471,0 89.6,40.11529 89.6,89.6v0c0,49.48471 -40.11529,89.6 -89.6,89.6z" fill="none"/><path d="M112,224c-61.85589,0 -112,-50.14411 -112,-112v0c0,-61.85589 50.14411,-112 112,-112v0c61.85589,0 112,50.14411 112,112v0c0,61.85589 -50.14411,112 -112,112z" fill="none"/><path d="M112,201.6c-49.48471,0 -89.6,-40.11529 -89.6,-89.6v0c0,-49.48471 40.11529,-89.6 89.6,-89.6v0c49.48471,0 89.6,40.11529 89.6,89.6v0c0,49.48471 -40.11529,89.6 -89.6,89.6z" fill="none"/><path d="M112,224c-61.85589,0 -112,-50.14411 -112,-112v0c0,-61.85589 50.14411,-112 112,-112v0c61.85589,0 112,50.14411 112,112v0c0,61.85589 -50.14411,112 -112,112z" fill="none"/><path d="M112,201.6c-49.48471,0 -89.6,-40.11529 -89.6,-89.6v0c0,-49.48471 40.11529,-89.6 89.6,-89.6v0c49.48471,0 89.6,40.11529 89.6,89.6v0c0,49.48471 -40.11529,89.6 -89.6,89.6z" fill="none"/><path d="M112,224c-61.85589,0 -112,-50.14411 -112,-112v0c0,-61.85589 50.14411,-112 112,-112v0c61.85589,0 112,50.14411 112,112v0c0,61.85589 -50.14411,112 -112,112z" fill="none"/><path d="M112,201.6c-49.48471,0 -89.6,-40.11529 -89.6,-89.6v0c0,-49.48471 40.11529,-89.6 89.6,-89.6v0c49.48471,0 89.6,40.11529 89.6,89.6v0c0,49.48471 -40.11529,89.6 -89.6,89.6z" fill="none"/><path d="M112,224c-61.85589,0 -112,-50.14411 -112,-112v0c0,-61.85589 50.14411,-112 112,-112v0c61.85589,0 112,50.14411 112,112v0c0,61.85589 -50.14411,112 -112,112z" fill="none"/><path d="M112,201.6c-49.48471,0 -89.6,-40.11529 -89.6,-89.6v0c0,-49.48471 40.11529,-89.6 89.6,-89.6v0c49.48471,0 89.6,40.11529 89.6,89.6v0c0,49.48471 -40.11529,89.6 -89.6,89.6z" fill="none"/><path d="M112,224c-61.85589,0 -112,-50.14411 -112,-112v0c0,-61.85589 50.14411,-112 112,-112v0c61.85589,0 112,50.14411 112,112v0c0,61.85589 -50.14411,112 -112,112z" fill="none"/><path d="M112,201.6c-49.48471,0 -89.6,-40.11529 -89.6,-89.6v0c0,-49.48471 40.11529,-89.6 89.6,-89.6v0c49.48471,0 89.6,40.11529 89.6,89.6v0c0,49.48471 -40.11529,89.6 -89.6,89.6z" fill="none"/><path d="M112,224c-61.85589,0 -112,-50.14411 -112,-112v0c0,-61.85589 50.14411,-112 112,-112v0c61.85589,0 112,50.14411 112,112v0c0,61.85589 -50.14411,112 -112,112z" fill="none"/><path d="M112,201.6c-49.48471,0 -89.6,-40.11529 -89.6,-89.6v0c0,-49.48471 40.11529,-89.6 89.6,-89.6v0c49.48471,0 89.6,40.11529 89.6,89.6v0c0,49.48471 -40.11529,89.6 -89.6,89.6z" fill="none"/><path d="M112,224c-61.85589,0 -112,-50.14411 -112,-112v0c0,-61.85589 50.14411,-112 112,-112v0c61.85589,0 112,50.14411 112,112v0c0,61.85589 -50.14411,112 -112,112z" fill="none"/><path d="M112,201.6c-49.48471,0 -89.6,-40.11529 -89.6,-89.6v0c0,-49.48471 40.11529,-89.6 89.6,-89.6v0c49.48471,0 89.6,40.11529 89.6,89.6v0c0,49.48471 -40.11529,89.6 -89.6,89.6z" fill="none"/><path d="M112,224c-61.85589,0 -112,-50.14411 -112,-112v0c0,-61.85589 50.14411,-112 112,-112v0c61.85589,0 112,50.14411 112,112v0c0,61.85589 -50.14411,112 -112,112z" fill="none"/><path d="M112,201.6c-49.48471,0 -89.6,-40.11529 -89.6,-89.6v0c0,-49.48471 40.11529,-89.6 89.6,-89.6v0c49.48471,0 89.6,40.11529 89.6,89.6v0c0,49.48471 -40.11529,89.6 -89.6,89.6z" fill="none"/><path d="M112,222.88c-61.23733,0 -110.88,-49.64267 -110.88,-110.88v0c0,-61.23733 49.64267,-110.88 110.88,-110.88v0c61.23733,0 110.88,49.64267 110.88,110.88v0c0,61.23733 -49.64267,110.88 -110.88,110.88z" fill="none"/><path d="M112,200.48c-48.86615,0 -88.48,-39.61385 -88.48,-88.48v0c0,-48.86615 39.61385,-88.48 88.48,-88.48v0c48.86615,0 88.48,39.61385 88.48,88.48v0c0,48.86615 -39.61385,88.48 -88.48,88.48z" fill="none"/><path d="M112,221.76c-60.61877,0 -109.76,-49.14123 -109.76,-109.76v0c0,-60.61877 49.14123,-109.76 109.76,-109.76h0c60.61877,0 109.76,49.14123 109.76,109.76v0c0,60.61877 -49.14123,109.76 -109.76,109.76z" fill="none"/><path d="M112,199.36c-48.2476,0 -87.36,-39.1124 -87.36,-87.36v0c0,-48.2476 39.1124,-87.36 87.36,-87.36h0c48.2476,0 87.36,39.1124 87.36,87.36v0c0,48.2476 -39.1124,87.36 -87.36,87.36z" fill="none"/><path d="M112,220.64c-60.00022,0 -108.64,-48.63978 -108.64,-108.64v0c0,-60.00022 48.63978,-108.64 108.64,-108.64h0c60.00022,0 108.64,48.63978 108.64,108.64v0c0,60.00022 -48.63978,108.64 -108.64,108.64z" fill="none"/><path d="M112,198.24c-47.62904,0 -86.24,-38.61096 -86.24,-86.24v0c0,-47.62904 38.61096,-86.24 86.24,-86.24h0c47.62904,0 86.24,38.61096 86.24,86.24v0c0,47.62904 -38.61096,86.24 -86.24,86.24z" fill="none"/><path d="M112,218.4c-58.7631,0 -106.4,-47.6369 -106.4,-106.4v0c0,-58.7631 47.6369,-106.4 106.4,-106.4v0c58.7631,0 106.4,47.6369 106.4,106.4v0c0,58.7631 -47.6369,106.4 -106.4,106.4z" fill="none"/><path d="M112,196c-46.39192,0 -84,-37.60808 -84,-84v0c0,-46.39192 37.60808,-84 84,-84v0c46.39192,0 84,37.60808 84,84v0c0,46.39192 -37.60808,84 -84,84z" fill="none"/><path d="M112,217.28c-58.14454,0 -105.28,-47.13546 -105.28,-105.28v0c0,-58.14454 47.13546,-105.28 105.28,-105.28v0c58.14454,0 105.28,47.13546 105.28,105.28v0c0,58.14454 -47.13546,105.28 -105.28,105.28z" fill="none"/><path d="M112,194.88c-45.77336,0 -82.88,-37.10664 -82.88,-82.88v0c0,-45.77336 37.10664,-82.88 82.88,-82.88v0c45.77336,0 82.88,37.10664 82.88,82.88v0c0,45.77336 -37.10664,82.88 -82.88,82.88z" fill="none"/><path d="M112,216.16c-57.52598,0 -104.16,-46.63402 -104.16,-104.16v0c0,-57.52598 46.63402,-104.16 104.16,-104.16v0c57.52598,0 104.16,46.63402 104.16,104.16v0c0,57.52598 -46.63402,104.16 -104.16,104.16z" fill="none"/><path d="M112,193.76c-45.1548,0 -81.76,-36.6052 -81.76,-81.76v0c0,-45.1548 36.6052,-81.76 81.76,-81.76v0c45.1548,0 81.76,36.6052 81.76,81.76v0c0,45.1548 -36.6052,81.76 -81.76,81.76z" fill="none"/><path d="M112,215.04c-56.90742,0 -103.04,-46.13258 -103.04,-103.04v0c0,-56.90742 46.13258,-103.04 103.04,-103.04h0c56.90742,0 103.04,46.13258 103.04,103.04v0c0,56.90742 -46.13258,103.04 -103.04,103.04z" fill="none"/><path d="M112,192.64c-44.53624,0 -80.64,-36.10376 -80.64,-80.64v0c0,-44.53624 36.10376,-80.64 80.64,-80.64h0c44.53624,0 80.64,36.10376 80.64,80.64v0c0,44.53624 -36.10376,80.64 -80.64,80.64z" fill="none"/><path d="M112,220.64c-60.00022,0 -108.64,-48.63978 -108.64,-108.64v0c0,-60.00022 48.63978,-108.64 108.64,-108.64h0c60.00022,0 108.64,48.63978 108.64,108.64v0c0,60.00022 -48.63978,108.64 -108.64,108.64z" fill="none"/><path d="M112,198.24c-47.62904,0 -86.24,-38.61096 -86.24,-86.24v0c0,-47.62904 38.61096,-86.24 86.24,-86.24h0c47.62904,0 86.24,38.61096 86.24,86.24v0c0,47.62904 -38.61096,86.24 -86.24,86.24z" fill="none"/><path d="M112,221.76c-60.61877,0 -109.76,-49.14123 -109.76,-109.76v0c0,-60.61877 49.14123,-109.76 109.76,-109.76h0c60.61877,0 109.76,49.14123 109.76,109.76v0c0,60.61877 -49.14123,109.76 -109.76,109.76z" fill="none"/><path d="M112,199.36c-48.2476,0 -87.36,-39.1124 -87.36,-87.36v0c0,-48.2476 39.1124,-87.36 87.36,-87.36h0c48.2476,0 87.36,39.1124 87.36,87.36v0c0,48.2476 -39.1124,87.36 -87.36,87.36z" fill="none"/><path d="M112,222.88c-61.23733,0 -110.88,-49.64267 -110.88,-110.88v0c0,-61.23733 49.64267,-110.88 110.88,-110.88v0c61.23733,0 110.88,49.64267 110.88,110.88v0c0,61.23733 -49.64267,110.88 -110.88,110.88z" fill="none"/><path d="M112,200.48c-48.86615,0 -88.48,-39.61385 -88.48,-88.48v0c0,-48.86615 39.61385,-88.48 88.48,-88.48v0c48.86615,0 88.48,39.61385 88.48,88.48v0c0,48.86615 -39.61385,88.48 -88.48,88.48z" fill="none"/><path d="M112,224c-61.85589,0 -112,-50.14411 -112,-112v0c0,-61.85589 50.14411,-112 112,-112v0c61.85589,0 112,50.14411 112,112v0c0,61.85589 -50.14411,112 -112,112z" fill="none"/><path d="M112,201.6c-49.48471,0 -89.6,-40.11529 -89.6,-89.6v0c0,-49.48471 40.11529,-89.6 89.6,-89.6v0c49.48471,0 89.6,40.11529 89.6,89.6v0c0,49.48471 -40.11529,89.6 -89.6,89.6z" fill="none"/><path d="M112,222.88c-61.23733,0 -110.88,-49.64267 -110.88,-110.88v0c0,-61.23733 49.64267,-110.88 110.88,-110.88v0c61.23733,0 110.88,49.64267 110.88,110.88v0c0,61.23733 -49.64267,110.88 -110.88,110.88z" fill="none"/><path d="M112,200.48c-48.86615,0 -88.48,-39.61385 -88.48,-88.48v0c0,-48.86615 39.61385,-88.48 88.48,-88.48v0c48.86615,0 88.48,39.61385 88.48,88.48v0c0,48.86615 -39.61385,88.48 -88.48,88.48z" fill="none"/><path d="M112,221.76c-60.61877,0 -109.76,-49.14123 -109.76,-109.76v0c0,-60.61877 49.14123,-109.76 109.76,-109.76h0c60.61877,0 109.76,49.14123 109.76,109.76v0c0,60.61877 -49.14123,109.76 -109.76,109.76z" fill="none"/><path d="M112,199.36c-48.2476,0 -87.36,-39.1124 -87.36,-87.36v0c0,-48.2476 39.1124,-87.36 87.36,-87.36h0c48.2476,0 87.36,39.1124 87.36,87.36v0c0,48.2476 -39.1124,87.36 -87.36,87.36z" fill="none"/><path d="M112,220.64c-60.00022,0 -108.64,-48.63978 -108.64,-108.64v0c0,-60.00022 48.63978,-108.64 108.64,-108.64h0c60.00022,0 108.64,48.63978 108.64,108.64v0c0,60.00022 -48.63978,108.64 -108.64,108.64z" fill="none"/><path d="M112,198.24c-47.62904,0 -86.24,-38.61096 -86.24,-86.24v0c0,-47.62904 38.61096,-86.24 86.24,-86.24h0c47.62904,0 86.24,38.61096 86.24,86.24v0c0,47.62904 -38.61096,86.24 -86.24,86.24z" fill="none"/><path d="M112,219.52c-59.38166,0 -107.52,-48.13834 -107.52,-107.52v0c0,-59.38166 48.13834,-107.52 107.52,-107.52h0c59.38166,0 107.52,48.13834 107.52,107.52v0c0,59.38166 -48.13834,107.52 -107.52,107.52z" fill="none"/><path d="M112,197.12c-47.01048,0 -85.12,-38.10952 -85.12,-85.12v0c0,-47.01048 38.10952,-85.12 85.12,-85.12h0c47.01048,0 85.12,38.10952 85.12,85.12v0c0,47.01048 -38.10952,85.12 -85.12,85.12z" fill="none"/><path d="M112,217.28c-58.14454,0 -105.28,-47.13546 -105.28,-105.28v0c0,-58.14454 47.13546,-105.28 105.28,-105.28v0c58.14454,0 105.28,47.13546 105.28,105.28v0c0,58.14454 -47.13546,105.28 -105.28,105.28z" fill="none"/><path d="M112,194.88c-45.77336,0 -82.88,-37.10664 -82.88,-82.88v0c0,-45.77336 37.10664,-82.88 82.88,-82.88v0c45.77336,0 82.88,37.10664 82.88,82.88v0c0,45.77336 -37.10664,82.88 -82.88,82.88z" fill="none"/><path d="M112,219.52c-59.38166,0 -107.52,-48.13834 -107.52,-107.52v0c0,-59.38166 48.13834,-107.52 107.52,-107.52h0c59.38166,0 107.52,48.13834 107.52,107.52v0c0,59.38166 -48.13834,107.52 -107.52,107.52z" fill="none"/><path d="M112,197.12c-47.01048,0 -85.12,-38.10952 -85.12,-85.12v0c0,-47.01048 38.10952,-85.12 85.12,-85.12h0c47.01048,0 85.12,38.10952 85.12,85.12v0c0,47.01048 -38.10952,85.12 -85.12,85.12z" fill="none"/><path d="M112,219.52c-59.38166,0 -107.52,-48.13834 -107.52,-107.52v0c0,-59.38166 48.13834,-107.52 107.52,-107.52h0c59.38166,0 107.52,48.13834 107.52,107.52v0c0,59.38166 -48.13834,107.52 -107.52,107.52z" fill="none"/><path d="M112,201.6c-49.48471,0 -89.6,-40.11529 -89.6,-89.6v0c0,-49.48471 40.11529,-89.6 89.6,-89.6v0c49.48471,0 89.6,40.11529 89.6,89.6v0c0,49.48471 -40.11529,89.6 -89.6,89.6z" fill="none"/><path d="M112,219.52c-59.38166,0 -107.52,-48.13834 -107.52,-107.52v0c0,-59.38166 48.13834,-107.52 107.52,-107.52h0c59.38166,0 107.52,48.13834 107.52,107.52v0c0,59.38166 -48.13834,107.52 -107.52,107.52z" fill="none"/><path d="M112,206.08c-51.95895,0 -94.08,-42.12105 -94.08,-94.08v0c0,-51.95895 42.12105,-94.08 94.08,-94.08h0c51.95895,0 94.08,42.12105 94.08,94.08v0c0,51.95895 -42.12105,94.08 -94.08,94.08z" fill="none"/><path d="M112,219.52c-59.38166,0 -107.52,-48.13834 -107.52,-107.52v0c0,-59.38166 48.13834,-107.52 107.52,-107.52h0c59.38166,0 107.52,48.13834 107.52,107.52v0c0,59.38166 -48.13834,107.52 -107.52,107.52z" fill="none"/><path d="M112,210.56c-54.43318,0 -98.56,-44.12682 -98.56,-98.56v0c0,-54.43318 44.12682,-98.56 98.56,-98.56v0c54.43318,0 98.56,44.12682 98.56,98.56v0c0,54.43318 -44.12682,98.56 -98.56,98.56z" fill="none"/><path d="M112,219.52c-59.38166,0 -107.52,-48.13834 -107.52,-107.52v0c0,-59.38166 48.13834,-107.52 107.52,-107.52h0c59.38166,0 107.52,48.13834 107.52,107.52v0c0,59.38166 -48.13834,107.52 -107.52,107.52z" fill="none"/><path d="M112,215.04c-56.90742,0 -103.04,-46.13258 -103.04,-103.04v0c0,-56.90742 46.13258,-103.04 103.04,-103.04v0c56.90742,0 103.04,46.13258 103.04,103.04v0c0,56.90742 -46.13258,103.04 -103.04,103.04z" fill="none"/><path d="M112,219.52c-59.38166,0 -107.52,-48.13834 -107.52,-107.52v0c0,-59.38166 48.13834,-107.52 107.52,-107.52h0c59.38166,0 107.52,48.13834 107.52,107.52v0c0,59.38166 -48.13834,107.52 -107.52,107.52z" fill="none"/><path d="M112,206.08c-51.95895,0 -94.08,-42.12105 -94.08,-94.08v0c0,-51.95895 42.12105,-94.08 94.08,-94.08h0c51.95895,0 94.08,42.12105 94.08,94.08v0c0,51.95895 -42.12105,94.08 -94.08,94.08z" fill="none"/><path d="M112,219.52c-59.38166,0 -107.52,-48.13834 -107.52,-107.52v0c0,-59.38166 48.13834,-107.52 107.52,-107.52h0c59.38166,0 107.52,48.13834 107.52,107.52v0c0,59.38166 -48.13834,107.52 -107.52,107.52z" fill="none"/><path d="M112,201.6c-49.48471,0 -89.6,-40.11529 -89.6,-89.6v0c0,-49.48471 40.11529,-89.6 89.6,-89.6v0c49.48471,0 89.6,40.11529 89.6,89.6v0c0,49.48471 -40.11529,89.6 -89.6,89.6z" fill="none"/><path d="M112,219.52c-59.38166,0 -107.52,-48.13834 -107.52,-107.52v0c0,-59.38166 48.13834,-107.52 107.52,-107.52h0c59.38166,0 107.52,48.13834 107.52,107.52v0c0,59.38166 -48.13834,107.52 -107.52,107.52z" fill="none"/><path d="M112,197.12c-47.01048,0 -85.12,-38.10952 -85.12,-85.12v0c0,-47.01048 38.10952,-85.12 85.12,-85.12h0c47.01048,0 85.12,38.10952 85.12,85.12v0c0,47.01048 -38.10952,85.12 -85.12,85.12z" fill="none"/><path d="M112,219.52c-59.38166,0 -107.52,-48.13834 -107.52,-107.52v0c0,-59.38166 48.13834,-107.52 107.52,-107.52h0c59.38166,0 107.52,48.13834 107.52,107.52v0c0,59.38166 -48.13834,107.52 -107.52,107.52z" fill="none"/><path d="M112,201.6c-49.48471,0 -89.6,-40.11529 -89.6,-89.6v0c0,-49.48471 40.11529,-89.6 89.6,-89.6v0c49.48471,0 89.6,40.11529 89.6,89.6v0c0,49.48471 -40.11529,89.6 -89.6,89.6z" fill="none"/><path d="M112,219.52c-59.38166,0 -107.52,-48.13834 -107.52,-107.52v0c0,-59.38166 48.13834,-107.52 107.52,-107.52h0c59.38166,0 107.52,48.13834 107.52,107.52v0c0,59.38166 -48.13834,107.52 -107.52,107.52z" fill="none"/><path d="M112,201.6c-49.48471,0 -89.6,-40.11529 -89.6,-89.6v0c0,-49.48471 40.11529,-89.6 89.6,-89.6v0c49.48471,0 89.6,40.11529 89.6,89.6v0c0,49.48471 -40.11529,89.6 -89.6,89.6z" fill="none"/><path d="M112,224c-61.85589,0 -112,-50.14411 -112,-112v0c0,-61.85589 50.14411,-112 112,-112v0c61.85589,0 112,50.14411 112,112v0c0,61.85589 -50.14411,112 -112,112z" fill="none"/><path d="M112,206.08c-51.95895,0 -94.08,-42.12105 -94.08,-94.08v0c0,-51.95895 42.12105,-94.08 94.08,-94.08h0c51.95895,0 94.08,42.12105 94.08,94.08v0c0,51.95895 -42.12105,94.08 -94.08,94.08z" fill="none"/><path d="M112,224c-61.85589,0 -112,-50.14411 -112,-112v0c0,-61.85589 50.14411,-112 112,-112v0c61.85589,0 112,50.14411 112,112v0c0,61.85589 -50.14411,112 -112,112z" fill="none"/><path d="M112,206.08c-51.95895,0 -94.08,-42.12105 -94.08,-94.08v0c0,-51.95895 42.12105,-94.08 94.08,-94.08h0c51.95895,0 94.08,42.12105 94.08,94.08v0c0,51.95895 -42.12105,94.08 -94.08,94.08z" fill="none"/><path d="M112,224c-61.85589,0 -112,-50.14411 -112,-112v0c0,-61.85589 50.14411,-112 112,-112v0c61.85589,0 112,50.14411 112,112v0c0,61.85589 -50.14411,112 -112,112z" fill="none"/><path d="M112,206.08c-51.95895,0 -94.08,-42.12105 -94.08,-94.08v0c0,-51.95895 42.12105,-94.08 94.08,-94.08h0c51.95895,0 94.08,42.12105 94.08,94.08v0c0,51.95895 -42.12105,94.08 -94.08,94.08z" fill="none"/><path d="M112,224c-61.85589,0 -112,-50.14411 -112,-112v0c0,-61.85589 50.14411,-112 112,-112v0c61.85589,0 112,50.14411 112,112v0c0,61.85589 -50.14411,112 -112,112z" fill="none"/><path d="M112,206.08c-51.95895,0 -94.08,-42.12105 -94.08,-94.08v0c0,-51.95895 42.12105,-94.08 94.08,-94.08h0c51.95895,0 94.08,42.12105 94.08,94.08v0c0,51.95895 -42.12105,94.08 -94.08,94.08z" fill="none"/><path d="M112,224c-61.85589,0 -112,-50.14411 -112,-112v0c0,-61.85589 50.14411,-112 112,-112v0c61.85589,0 112,50.14411 112,112v0c0,61.85589 -50.14411,112 -112,112z" fill="none"/><path d="M112,206.08c-51.95895,0 -94.08,-42.12105 -94.08,-94.08v0c0,-51.95895 42.12105,-94.08 94.08,-94.08h0c51.95895,0 94.08,42.12105 94.08,94.08v0c0,51.95895 -42.12105,94.08 -94.08,94.08z" fill="none"/><path d="M112,224c-61.85589,0 -112,-50.14411 -112,-112v0c0,-61.85589 50.14411,-112 112,-112v0c61.85589,0 112,50.14411 112,112v0c0,61.85589 -50.14411,112 -112,112z" fill="none"/><path d="M112,206.08c-51.95895,0 -94.08,-42.12105 -94.08,-94.08v0c0,-51.95895 42.12105,-94.08 94.08,-94.08h0c51.95895,0 94.08,42.12105 94.08,94.08v0c0,51.95895 -42.12105,94.08 -94.08,94.08z" fill="none"/><path d="M112,224c-61.85589,0 -112,-50.14411 -112,-112v0c0,-61.85589 50.14411,-112 112,-112v0c61.85589,0 112,50.14411 112,112v0c0,61.85589 -50.14411,112 -112,112z" fill="none"/><path d="M112,206.08c-51.95895,0 -94.08,-42.12105 -94.08,-94.08v0c0,-51.95895 42.12105,-94.08 94.08,-94.08h0c51.95895,0 94.08,42.12105 94.08,94.08v0c0,51.95895 -42.12105,94.08 -94.08,94.08z" fill="none"/><path d="M112,224c-61.85589,0 -112,-50.14411 -112,-112v0c0,-61.85589 50.14411,-112 112,-112v0c61.85589,0 112,50.14411 112,112v0c0,61.85589 -50.14411,112 -112,112z" fill="none"/><path d="M112,206.08c-51.95895,0 -94.08,-42.12105 -94.08,-94.08v0c0,-51.95895 42.12105,-94.08 94.08,-94.08h0c51.95895,0 94.08,42.12105 94.08,94.08v0c0,51.95895 -42.12105,94.08 -94.08,94.08z" fill="none"/><path d="M112,224c-61.85589,0 -112,-50.14411 -112,-112v0c0,-61.85589 50.14411,-112 112,-112v0c61.85589,0 112,50.14411 112,112v0c0,61.85589 -50.14411,112 -112,112z" fill="none"/><path d="M112,206.08c-51.95895,0 -94.08,-42.12105 -94.08,-94.08v0c0,-51.95895 42.12105,-94.08 94.08,-94.08h0c51.95895,0 94.08,42.12105 94.08,94.08v0c0,51.95895 -42.12105,94.08 -94.08,94.08z" fill="none"/><path d="M112,224c-61.85589,0 -112,-50.14411 -112,-112v0c0,-61.85589 50.14411,-112 112,-112v0c61.85589,0 112,50.14411 112,112v0c0,61.85589 -50.14411,112 -112,112z" fill="none"/><path d="M112,206.08c-51.95895,0 -94.08,-42.12105 -94.08,-94.08v0c0,-51.95895 42.12105,-94.08 94.08,-94.08h0c51.95895,0 94.08,42.12105 94.08,94.08v0c0,51.95895 -42.12105,94.08 -94.08,94.08z" fill="none"/><path d="M112,224c-61.85589,0 -112,-50.14411 -112,-112v0c0,-61.85589 50.14411,-112 112,-112v0c61.85589,0 112,50.14411 112,112v0c0,61.85589 -50.14411,112 -112,112z" fill="none"/><path d="M112,206.08c-51.95895,0 -94.08,-42.12105 -94.08,-94.08v0c0,-51.95895 42.12105,-94.08 94.08,-94.08h0c51.95895,0 94.08,42.12105 94.08,94.08v0c0,51.95895 -42.12105,94.08 -94.08,94.08z" fill="none"/><path d="M112,224c-61.85589,0 -112,-50.14411 -112,-112v0c0,-61.85589 50.14411,-112 112,-112v0c61.85589,0 112,50.14411 112,112v0c0,61.85589 -50.14411,112 -112,112z" fill="none"/><path d="M112,206.08c-51.95895,0 -94.08,-42.12105 -94.08,-94.08v0c0,-51.95895 42.12105,-94.08 94.08,-94.08h0c51.95895,0 94.08,42.12105 94.08,94.08v0c0,51.95895 -42.12105,94.08 -94.08,94.08z" fill="none"/><path d="M112,224c-61.85589,0 -112,-50.14411 -112,-112v0c0,-61.85589 50.14411,-112 112,-112v0c61.85589,0 112,50.14411 112,112v0c0,61.85589 -50.14411,112 -112,112z" fill="none"/><path d="M112,206.08c-51.95895,0 -94.08,-42.12105 -94.08,-94.08v0c0,-51.95895 42.12105,-94.08 94.08,-94.08h0c51.95895,0 94.08,42.12105 94.08,94.08v0c0,51.95895 -42.12105,94.08 -94.08,94.08z" fill="none"/><path d="M112,224c-61.85589,0 -112,-50.14411 -112,-112v0c0,-61.85589 50.14411,-112 112,-112v0c61.85589,0 112,50.14411 112,112v0c0,61.85589 -50.14411,112 -112,112z" fill="none"/><path d="M112,206.08c-51.95895,0 -94.08,-42.12105 -94.08,-94.08v0c0,-51.95895 42.12105,-94.08 94.08,-94.08h0c51.95895,0 94.08,42.12105 94.08,94.08v0c0,51.95895 -42.12105,94.08 -94.08,94.08z" fill="none"/><path d="M112,224c-61.85589,0 -112,-50.14411 -112,-112v0c0,-61.85589 50.14411,-112 112,-112v0c61.85589,0 112,50.14411 112,112v0c0,61.85589 -50.14411,112 -112,112z" fill="none"/><path d="M112,206.08c-51.95895,0 -94.08,-42.12105 -94.08,-94.08v0c0,-51.95895 42.12105,-94.08 94.08,-94.08h0c51.95895,0 94.08,42.12105 94.08,94.08v0c0,51.95895 -42.12105,94.08 -94.08,94.08z" fill="none"/><path d="M112,224c-61.85589,0 -112,-50.14411 -112,-112v0c0,-61.85589 50.14411,-112 112,-112v0c61.85589,0 112,50.14411 112,112v0c0,61.85589 -50.14411,112 -112,112z" fill="none"/><path d="M112,206.08c-51.95895,0 -94.08,-42.12105 -94.08,-94.08v0c0,-51.95895 42.12105,-94.08 94.08,-94.08h0c51.95895,0 94.08,42.12105 94.08,94.08v0c0,51.95895 -42.12105,94.08 -94.08,94.08z" fill="none"/><path d="M112,224c-61.85589,0 -112,-50.14411 -112,-112v0c0,-61.85589 50.14411,-112 112,-112v0c61.85589,0 112,50.14411 112,112v0c0,61.85589 -50.14411,112 -112,112z" fill="none"/><path d="M112,206.08c-51.95895,0 -94.08,-42.12105 -94.08,-94.08v0c0,-51.95895 42.12105,-94.08 94.08,-94.08h0c51.95895,0 94.08,42.12105 94.08,94.08v0c0,51.95895 -42.12105,94.08 -94.08,94.08z" fill="none"/><path d="M112,224c-61.85589,0 -112,-50.14411 -112,-112v0c0,-61.85589 50.14411,-112 112,-112v0c61.85589,0 112,50.14411 112,112v0c0,61.85589 -50.14411,112 -112,112z" fill="none"/><path d="M112,206.08c-51.95895,0 -94.08,-42.12105 -94.08,-94.08v0c0,-51.95895 42.12105,-94.08 94.08,-94.08h0c51.95895,0 94.08,42.12105 94.08,94.08v0c0,51.95895 -42.12105,94.08 -94.08,94.08z" fill="none"/><path d="M112,224c-61.85589,0 -112,-50.14411 -112,-112v0c0,-61.85589 50.14411,-112 112,-112v0c61.85589,0 112,50.14411 112,112v0c0,61.85589 -50.14411,112 -112,112z" fill="none"/><path d="M112,206.08c-51.95895,0 -94.08,-42.12105 -94.08,-94.08v0c0,-51.95895 42.12105,-94.08 94.08,-94.08h0c51.95895,0 94.08,42.12105 94.08,94.08v0c0,51.95895 -42.12105,94.08 -94.08,94.08z" fill="none"/><path d="M112,224c-61.85589,0 -112,-50.14411 -112,-112v0c0,-61.85589 50.14411,-112 112,-112v0c61.85589,0 112,50.14411 112,112v0c0,61.85589 -50.14411,112 -112,112z" fill="none"/><path d="M112,206.08c-51.95895,0 -94.08,-42.12105 -94.08,-94.08v0c0,-51.95895 42.12105,-94.08 94.08,-94.08h0c51.95895,0 94.08,42.12105 94.08,94.08v0c0,51.95895 -42.12105,94.08 -94.08,94.08z" fill="none"/><path d="M112,224c-61.85589,0 -112,-50.14411 -112,-112v0c0,-61.85589 50.14411,-112 112,-112v0c61.85589,0 112,50.14411 112,112v0c0,61.85589 -50.14411,112 -112,112z" fill="none"/><path d="M112,206.08c-51.95895,0 -94.08,-42.12105 -94.08,-94.08v0c0,-51.95895 42.12105,-94.08 94.08,-94.08h0c51.95895,0 94.08,42.12105 94.08,94.08v0c0,51.95895 -42.12105,94.08 -94.08,94.08z" fill="none"/><path d="M112,224c-61.85589,0 -112,-50.14411 -112,-112v0c0,-61.85589 50.14411,-112 112,-112v0c61.85589,0 112,50.14411 112,112v0c0,61.85589 -50.14411,112 -112,112z" fill="none"/><path d="M112,206.08c-51.95895,0 -94.08,-42.12105 -94.08,-94.08v0c0,-51.95895 42.12105,-94.08 94.08,-94.08h0c51.95895,0 94.08,42.12105 94.08,94.08v0c0,51.95895 -42.12105,94.08 -94.08,94.08z" fill="none"/><path d="M112,224c-61.85589,0 -112,-50.14411 -112,-112v0c0,-61.85589 50.14411,-112 112,-112v0c61.85589,0 112,50.14411 112,112v0c0,61.85589 -50.14411,112 -112,112z" fill="none"/><path d="M112,206.08c-51.95895,0 -94.08,-42.12105 -94.08,-94.08v0c0,-51.95895 42.12105,-94.08 94.08,-94.08h0c51.95895,0 94.08,42.12105 94.08,94.08v0c0,51.95895 -42.12105,94.08 -94.08,94.08z" fill="none"/><path d="M112,224c-61.85589,0 -112,-50.14411 -112,-112v0c0,-61.85589 50.14411,-112 112,-112v0c61.85589,0 112,50.14411 112,112v0c0,61.85589 -50.14411,112 -112,112z" fill="none"/><path d="M112,206.08c-51.95895,0 -94.08,-42.12105 -94.08,-94.08v0c0,-51.95895 42.12105,-94.08 94.08,-94.08h0c51.95895,0 94.08,42.12105 94.08,94.08v0c0,51.95895 -42.12105,94.08 -94.08,94.08z" fill="none"/><path d="M112,224c-61.85589,0 -112,-50.14411 -112,-112v0c0,-61.85589 50.14411,-112 112,-112v0c61.85589,0 112,50.14411 112,112v0c0,61.85589 -50.14411,112 -112,112z" fill="none"/><path d="M112,206.08c-51.95895,0 -94.08,-42.12105 -94.08,-94.08v0c0,-51.95895 42.12105,-94.08 94.08,-94.08h0c51.95895,0 94.08,42.12105 94.08,94.08v0c0,51.95895 -42.12105,94.08 -94.08,94.08z" fill="none"/><path d="M112,224c-61.85589,0 -112,-50.14411 -112,-112v0c0,-61.85589 50.14411,-112 112,-112v0c61.85589,0 112,50.14411 112,112v0c0,61.85589 -50.14411,112 -112,112z" fill="none"/><path d="M112,206.08c-51.95895,0 -94.08,-42.12105 -94.08,-94.08v0c0,-51.95895 42.12105,-94.08 94.08,-94.08h0c51.95895,0 94.08,42.12105 94.08,94.08v0c0,51.95895 -42.12105,94.08 -94.08,94.08z" fill="none"/><path d="M112,224c-61.85589,0 -112,-50.14411 -112,-112v0c0,-61.85589 50.14411,-112 112,-112v0c61.85589,0 112,50.14411 112,112v0c0,61.85589 -50.14411,112 -112,112z" fill="none"/><path d="M112,206.08c-51.95895,0 -94.08,-42.12105 -94.08,-94.08v0c0,-51.95895 42.12105,-94.08 94.08,-94.08h0c51.95895,0 94.08,42.12105 94.08,94.08v0c0,51.95895 -42.12105,94.08 -94.08,94.08z" fill="none"/><path d="M112,224c-61.85589,0 -112,-50.14411 -112,-112v0c0,-61.85589 50.14411,-112 112,-112v0c61.85589,0 112,50.14411 112,112v0c0,61.85589 -50.14411,112 -112,112z" fill="none"/><path d="M112,206.08c-51.95895,0 -94.08,-42.12105 -94.08,-94.08v0c0,-51.95895 42.12105,-94.08 94.08,-94.08h0c51.95895,0 94.08,42.12105 94.08,94.08v0c0,51.95895 -42.12105,94.08 -94.08,94.08z" fill="none"/><path d="M112,224c-61.85589,0 -112,-50.14411 -112,-112v0c0,-61.85589 50.14411,-112 112,-112v0c61.85589,0 112,50.14411 112,112v0c0,61.85589 -50.14411,112 -112,112z" fill="none"/><path d="M112,206.08c-51.95895,0 -94.08,-42.12105 -94.08,-94.08v0c0,-51.95895 42.12105,-94.08 94.08,-94.08h0c51.95895,0 94.08,42.12105 94.08,94.08v0c0,51.95895 -42.12105,94.08 -94.08,94.08z" fill="none"/><path d="M112,224c-61.85589,0 -112,-50.14411 -112,-112v0c0,-61.85589 50.14411,-112 112,-112v0c61.85589,0 112,50.14411 112,112v0c0,61.85589 -50.14411,112 -112,112z" fill="none"/><path d="M112,206.08c-51.95895,0 -94.08,-42.12105 -94.08,-94.08v0c0,-51.95895 42.12105,-94.08 94.08,-94.08h0c51.95895,0 94.08,42.12105 94.08,94.08v0c0,51.95895 -42.12105,94.08 -94.08,94.08z" fill="none"/><path d="M112,224c-61.85589,0 -112,-50.14411 -112,-112v0c0,-61.85589 50.14411,-112 112,-112v0c61.85589,0 112,50.14411 112,112v0c0,61.85589 -50.14411,112 -112,112z" fill="none"/><path d="M112,206.08c-51.95895,0 -94.08,-42.12105 -94.08,-94.08v0c0,-51.95895 42.12105,-94.08 94.08,-94.08h0c51.95895,0 94.08,42.12105 94.08,94.08v0c0,51.95895 -42.12105,94.08 -94.08,94.08z" fill="none"/><path d="M112,224c-61.85589,0 -112,-50.14411 -112,-112v0c0,-61.85589 50.14411,-112 112,-112v0c61.85589,0 112,50.14411 112,112v0c0,61.85589 -50.14411,112 -112,112z" fill="none"/><path d="M112,206.08c-51.95895,0 -94.08,-42.12105 -94.08,-94.08v0c0,-51.95895 42.12105,-94.08 94.08,-94.08h0c51.95895,0 94.08,42.12105 94.08,94.08v0c0,51.95895 -42.12105,94.08 -94.08,94.08z" fill="none"/><path d="M112,224c-61.85589,0 -112,-50.14411 -112,-112v0c0,-61.85589 50.14411,-112 112,-112v0c61.85589,0 112,50.14411 112,112v0c0,61.85589 -50.14411,112 -112,112z" fill="none"/><path d="M112,206.08c-51.95895,0 -94.08,-42.12105 -94.08,-94.08v0c0,-51.95895 42.12105,-94.08 94.08,-94.08h0c51.95895,0 94.08,42.12105 94.08,94.08v0c0,51.95895 -42.12105,94.08 -94.08,94.08z" fill="none"/><path d="M112,224c-61.85589,0 -112,-50.14411 -112,-112v0c0,-61.85589 50.14411,-112 112,-112v0c61.85589,0 112,50.14411 112,112v0c0,61.85589 -50.14411,112 -112,112z" fill="none"/><path d="M112,206.08c-51.95895,0 -94.08,-42.12105 -94.08,-94.08v0c0,-51.95895 42.12105,-94.08 94.08,-94.08h0c51.95895,0 94.08,42.12105 94.08,94.08v0c0,51.95895 -42.12105,94.08 -94.08,94.08z" fill="none"/></g></svg>
